<svg id="Layer_1" data-name="Layer 1" xmlns="http://www.w3.org/2000/svg" width="2.24in" height="1.05in" viewBox="0 0 161.6 75.45"><defs><style>.cls-1,.cls-2{fill:none;stroke:#000;stroke-miterlimit:10;}.cls-1{stroke-width:0.75px;}.cls-3{font-size:0.24px;}.cls-10,.cls-11,.cls-15,.cls-18,.cls-21,.cls-25,.cls-3,.cls-34,.cls-37,.cls-41,.cls-49,.cls-54,.cls-56,.cls-6,.cls-60{fill:#34479a;}.cls-10,.cls-11,.cls-12,.cls-13,.cls-14,.cls-15,.cls-16,.cls-17,.cls-18,.cls-19,.cls-20,.cls-21,.cls-22,.cls-23,.cls-24,.cls-25,.cls-26,.cls-27,.cls-28,.cls-29,.cls-3,.cls-30,.cls-31,.cls-32,.cls-33,.cls-34,.cls-35,.cls-36,.cls-37,.cls-38,.cls-39,.cls-4,.cls-40,.cls-41,.cls-42,.cls-43,.cls-44,.cls-45,.cls-46,.cls-47,.cls-48,.cls-49,.cls-5,.cls-50,.cls-51,.cls-52,.cls-53,.cls-54,.cls-55,.cls-56,.cls-57,.cls-58,.cls-59,.cls-6,.cls-60,.cls-7,.cls-8,.cls-9{font-family:Helvetica-Bold, Helvetica;font-weight:700;}.cls-4{font-size:0.52px;}.cls-12,.cls-13,.cls-17,.cls-20,.cls-23,.cls-26,.cls-30,.cls-36,.cls-39,.cls-4,.cls-42,.cls-47,.cls-53,.cls-58,.cls-8{fill:#ca2128;}.cls-5{font-size:0.58px;}.cls-14,.cls-16,.cls-19,.cls-24,.cls-27,.cls-29,.cls-32,.cls-38,.cls-43,.cls-46,.cls-48,.cls-5,.cls-52,.cls-55,.cls-7{fill:#098141;}.cls-6{font-size:7.93px;}.cls-7{font-size:26.13px;}.cls-8{font-size:0.95px;}.cls-9{font-size:50.91px;}.cls-22,.cls-28,.cls-31,.cls-33,.cls-35,.cls-40,.cls-44,.cls-45,.cls-50,.cls-51,.cls-57,.cls-59,.cls-9{fill:#fab118;}.cls-10{font-size:56.27px;}.cls-11{font-size:0.92px;}.cls-12{font-size:51.96px;}.cls-13{font-size:1.56px;}.cls-14,.cls-36{font-size:2.52px;}.cls-15{font-size:33.13px;}.cls-16{font-size:2.61px;}.cls-17{font-size:4.58px;}.cls-18{font-size:5.08px;}.cls-19{font-size:0.2px;}.cls-20{font-size:1.13px;}.cls-21{font-size:1.46px;}.cls-22{font-size:3.31px;}.cls-23{font-size:0.31px;}.cls-24{font-size:8.42px;}.cls-25{font-size:17.31px;}.cls-26{font-size:0.2px;}.cls-27{font-size:0.26px;}.cls-28{font-size:0.63px;}.cls-29{font-size:0.08px;}.cls-30{font-size:0.2px;}.cls-31{font-size:0.52px;}.cls-32{font-size:0.51px;}.cls-33{font-size:0.88px;}.cls-34{font-size:1.06px;}.cls-35{font-size:1.53px;}.cls-37{font-size:0.14px;}.cls-38{font-size:1.65px;}.cls-39{font-size:3.67px;}.cls-40{font-size:13.45px;}.cls-41{font-size:0.12px;}.cls-42{font-size:2.09px;}.cls-43{font-size:3.07px;}.cls-44{font-size:13.1px;}.cls-45{font-size:9.62px;}.cls-46{font-size:21.58px;}.cls-47{font-size:0.27px;}.cls-48{font-size:1.53px;}.cls-49{font-size:3.31px;}.cls-50{font-size:18.76px;}.cls-51{font-size:0.36px;}.cls-52{font-size:0.37px;}.cls-53{font-size:4.75px;}.cls-54{font-size:22.28px;}.cls-55{font-size:0.31px;}.cls-56{font-size:0.79px;}.cls-57{font-size:1.29px;}.cls-58{font-size:2.99px;}.cls-59{font-size:0.31px;}.cls-60{font-size:0.47px;}.cls-61{font-size:6px;}.cls-61,.cls-62,.cls-63,.cls-66{fill:#231f20;}.cls-61,.cls-62,.cls-65,.cls-66{font-family:MyriadPro-Regular, Myriad Pro;}.cls-62{font-size:7px;}.cls-63,.cls-66{font-size:6.5px;}.cls-63,.cls-67{font-family:MyriadPro-It, Myriad Pro;font-style:italic;}.cls-64{letter-spacing:-0.02em;}.cls-65{font-style:normal;}.cls-67{font-size:7.8px;}.cls-68{fill:#090505;}</style></defs><polyline class="cls-1" points="12.01 49.51 13.48 49.51 13.48 10.1"/><line class="cls-2" x1="12.01" y1="49.51" x2="13.48" y2="49.51"/><line class="cls-2" x1="12.01" y1="29.8" x2="13.48" y2="29.8"/><line class="cls-2" x1="12.01" y1="10.1" x2="13.48" y2="10.1"/><text class="cls-3" transform="translate(13.25 49.27) scale(54.69 1)">C</text><text class="cls-4" transform="translate(13.42 48.86) scale(22.97 1)">A</text><text class="cls-5" transform="translate(13.73 48.26) scale(22.97 1)">T</text><text class="cls-6" transform="translate(20.17 49.16) scale(1.65 1)">C</text><text class="cls-7" transform="translate(20.66 43.77) scale(0.51 1)">T</text><text class="cls-8" transform="translate(27.33 49.5) scale(12.55 1)">A</text><text class="cls-9" transform="translate(27.19 48.25) scale(0.24 1)">G</text><text class="cls-10" transform="translate(34.08 48.39) scale(0.23 1)">C</text><text class="cls-11" transform="translate(41 49.49) scale(14.28 1)">C</text><text class="cls-12" transform="translate(41.18 48.61) scale(0.23 1)">A</text><text class="cls-13" transform="translate(48.16 49.5) scale(7.62 1)">A</text><text class="cls-14" transform="translate(48.47 48.19) scale(5.33 1)">T</text><text class="cls-15" transform="translate(47.99 45.94) scale(0.4 1)">C</text><text class="cls-16" transform="translate(55.4 49.5) scale(5.15 1)">T</text><text class="cls-17" transform="translate(55.09 47.49) scale(2.59 1)">A</text><text class="cls-18" transform="translate(54.91 44.1) scale(2.58 1)">C</text><text class="cls-19" transform="translate(62.32 49.49) scale(67.43 1)">T</text><text class="cls-20" transform="translate(62.01 49.15) scale(10.48 1)">A</text><text class="cls-21" transform="translate(61.84 48.11) scale(8.96 1)">C</text><text class="cls-22" transform="translate(61.87 46.87) scale(3.66 1)">G</text><text class="cls-23" transform="translate(68.99 49.49) scale(37.93 1)">A</text><text class="cls-24" transform="translate(69.3 49.05) scale(1.6 1)">T</text><text class="cls-25" transform="translate(68.82 42.94) scale(0.76 1)">C</text><text class="cls-26" transform="translate(75.92 49.28) scale(59.11 1)">A</text><text class="cls-27" transform="translate(76.23 48.87) scale(50.94 1)">T</text><text class="cls-28" transform="translate(75.78 48.44) scale(19.29 1)">G</text><text class="cls-29" transform="translate(83.21 49.26)">T</text><text class="cls-30" transform="translate(82.9 48.95) scale(60.4 1)">A</text><text class="cls-31" transform="translate(82.76 48.55) scale(23.22 1)">G</text><text class="cls-32" transform="translate(90.14 49.26) scale(26.24 1)">T</text><text class="cls-33" transform="translate(89.69 48.67) scale(13.73 1)">G</text><text class="cls-34" transform="translate(89.65 47.78) scale(12.36 1)">C</text><text class="cls-35" transform="translate(103.59 49.49) scale(7.92 1)">G</text><text class="cls-36" transform="translate(103.73 48.19) scale(4.72 1)">A</text><text class="cls-15" transform="translate(103.56 45.94) scale(0.4 1)">C</text><text class="cls-37" transform="translate(110.49 49.5) scale(95.18 1)">C</text><text class="cls-38" transform="translate(110.97 49.17) scale(8.13 1)">T</text><text class="cls-39" transform="translate(110.66 47.8) scale(3.24 1)">A</text><text class="cls-40" transform="translate(110.52 45.03) scale(0.9 1)">G</text><text class="cls-41" transform="translate(117.41 49.49)">C</text><text class="cls-42" transform="translate(117.58 49.18) scale(5.68 1)">A</text><text class="cls-43" transform="translate(117.89 47.52) scale(4.37 1)">T</text><text class="cls-44" transform="translate(117.44 45.14) scale(0.92 1)">G</text><text class="cls-45" transform="translate(124.43 49.43) scale(1.26 1)">G</text><text class="cls-46" transform="translate(124.87 42.67) scale(0.62 1)">T</text><text class="cls-47" transform="translate(131.49 49.49) scale(44.37 1)">A</text><text class="cls-48" transform="translate(131.8 49.12) scale(8.8 1)">T</text><text class="cls-49" transform="translate(131.31 47.76) scale(3.96 1)">C</text><text class="cls-50" transform="translate(131.35 45.16) scale(0.64 1)">G</text><text class="cls-51" transform="translate(138.28 49.49) scale(33.51 1)">G</text><text class="cls-52" transform="translate(138.72 49.04) scale(36.41 1)">T</text><text class="cls-53" transform="translate(138.41 48.52) scale(2.5 1)">A</text><text class="cls-54" transform="translate(138.24 44.84) scale(0.59 1)">C</text><text class="cls-55" transform="translate(145.71 49.49) scale(43.35 1)">T</text><text class="cls-56" transform="translate(145.22 49.05) scale(16.62 1)">C</text><text class="cls-57" transform="translate(145.25 48.28) scale(9.38 1)">G</text><text class="cls-58" transform="translate(145.4 47.14) scale(3.97 1)">A</text><text class="cls-59" transform="translate(152.18 48.95) scale(38.64 1)">G</text><text class="cls-60" transform="translate(152.15 48.5) scale(27.6 1)">C</text><text class="cls-61" transform="translate(19.95 54.27) rotate(-90)">1</text><text class="cls-61" transform="translate(26.86 54.27) rotate(-90)">2</text><text class="cls-61" transform="translate(33.76 54.27) rotate(-90)">3</text><text class="cls-61" transform="translate(40.5 54.27) rotate(-90)">4</text><text class="cls-61" transform="translate(48.27 54.27) rotate(-90)">5</text><text class="cls-61" transform="translate(54.65 54.27) rotate(-90)">6</text><text class="cls-61" transform="translate(61.21 54.27) rotate(-90)">7</text><text class="cls-61" transform="translate(68.12 54.27) rotate(-90)">8</text><text class="cls-61" transform="translate(74.68 54.27) rotate(-90)">9</text><text class="cls-61" transform="translate(82.1 56.41) rotate(-90)">10</text><text class="cls-61" transform="translate(89.01 56.41) rotate(-90)">11</text><text class="cls-61" transform="translate(95.91 56.41) rotate(-90)">12</text><text class="cls-61" transform="translate(103.52 56.41) rotate(-90)">13</text><text class="cls-61" transform="translate(109.73 56.41) rotate(-90)">14</text><text class="cls-61" transform="translate(116.81 56.41) rotate(-90)">15</text><text class="cls-61" transform="translate(123.02 56.41) rotate(-90)">16</text><text class="cls-61" transform="translate(130.45 56.41) rotate(-90)">17</text><text class="cls-61" transform="translate(137.35 56.41) rotate(-90)">18</text><text class="cls-61" transform="translate(144.26 56.41) rotate(-90)">19</text><text class="cls-61" transform="translate(150.99 56.41) rotate(-90)">20</text><text class="cls-61" transform="translate(158.07 56.41) rotate(-90)">21</text><text class="cls-62" transform="translate(7.85 50.67)">0</text><text class="cls-62" transform="translate(7.08 31.1)">1</text><text class="cls-62" transform="translate(7.08 11.53)">2</text><text class="cls-62" transform="translate(5.86 33.47) rotate(-90)">Bits</text><text class="cls-63" transform="translate(36.58 64.11)">E-<tspan class="cls-64" x="5.05" y="0">v</tspan><tspan x="7.9" y="0">alue</tspan><tspan class="cls-65" x="19.14" y="0">=2.1 × 10</tspan></text><text class="cls-66" transform="translate(80.91 61.95) scale(0.58)">-84</text><text class="cls-67" transform="translate(13.87 63.33)">ybaQ</text><line class="cls-2" x1="32.17" y1="6.09" x2="74.97" y2="6.09"/><path d="M76.38,5.35l-1.1-1.8.07,0,2.93,1.16,3.07.68L78.28,6,75.35,7.19l-.07,0Z" transform="translate(-2.3 0.74)"/><line class="cls-2" x1="146.97" y1="6.09" x2="104.16" y2="6.09"/><path d="M107.36,5.35l1.1,1.8-.06,0L105.46,6l-3.07-.68,3.07-.68,2.94-1.16.06,0Z" transform="translate(-2.3 0.74)"/><path class="cls-68" d="M93.81,5.35a1.06,1.06,0,1,0-1.06,1.06A1.05,1.05,0,0,0,93.81,5.35Z" transform="translate(-2.3 0.74)"/></svg>