<svg id="Layer_1" data-name="Layer 1" xmlns="http://www.w3.org/2000/svg" width="2.4in" height="1.5in" viewBox="0 0 172.9 107.65"><defs><style>.cls-1{fill:none;stroke:#000;stroke-miterlimit:10;}.cls-2{font-size:4.32px;}.cls-2,.cls-31{fill:#231f20;}.cls-10,.cls-11,.cls-12,.cls-13,.cls-14,.cls-15,.cls-16,.cls-17,.cls-18,.cls-19,.cls-2,.cls-20,.cls-21,.cls-22,.cls-23,.cls-24,.cls-25,.cls-26,.cls-27,.cls-28,.cls-29,.cls-3,.cls-30,.cls-4,.cls-5,.cls-6,.cls-7,.cls-8,.cls-9{font-family:Helvetica-Bold, Helvetica;font-weight:700;}.cls-16,.cls-3{font-size:2.5px;}.cls-11,.cls-14,.cls-15,.cls-18,.cls-20,.cls-22,.cls-3{fill:#0f8140;}.cls-4{font-size:8.1px;}.cls-13,.cls-25,.cls-29,.cls-4,.cls-8{fill:#fcb316;}.cls-5{font-size:11px;}.cls-10,.cls-17,.cls-23,.cls-24,.cls-28,.cls-5,.cls-6{fill:#36459c;}.cls-6{font-size:76.77px;}.cls-7{font-size:80.29px;}.cls-12,.cls-16,.cls-19,.cls-21,.cls-26,.cls-27,.cls-30,.cls-7,.cls-9{fill:#cb2026;}.cls-8{font-size:6.53px;}.cls-9{font-size:50.98px;}.cls-10{font-size:2.91px;}.cls-11{font-size:6.58px;}.cls-12{font-size:17.2px;}.cls-13{font-size:14.61px;}.cls-14,.cls-21{font-size:25.9px;}.cls-15{font-size:35.51px;}.cls-17{font-size:8.13px;}.cls-18,.cls-30{font-size:11.5px;}.cls-19{font-size:80.29px;}.cls-20{font-size:15.34px;}.cls-22{font-size:6.85px;}.cls-23{font-size:48.74px;}.cls-24{font-size:4.35px;}.cls-25{font-size:4.33px;}.cls-26{font-size:9.6px;}.cls-27{font-size:4.55px;}.cls-28{font-size:4.35px;}.cls-29{font-size:9.14px;}.cls-31,.cls-32,.cls-34{font-size:10px;}.cls-31,.cls-32{font-family:ArialMT, Arial;}.cls-33,.cls-34{letter-spacing:-0.01em;}.cls-34{font-family:Arial-ItalicMT, Arial;font-style:italic;}</style></defs><polyline class="cls-1" points="16.46 69.06 18.62 69.06 18.62 10.9"/><line class="cls-1" x1="16.46" y1="69.06" x2="18.62" y2="69.06"/><line class="cls-1" x1="16.46" y1="39.98" x2="18.62" y2="39.98"/><line class="cls-1" x1="16.46" y1="10.9" x2="18.62" y2="10.9"/><text class="cls-2" transform="translate(25.87 71.82) rotate(-90)">1</text><text class="cls-3" transform="translate(18.69 69.04) scale(6.8 1)">T</text><text class="cls-4" transform="translate(18.35 66.73) scale(1.83 1)">G</text><text class="cls-5" transform="translate(18.27 60.17) scale(1.43 1)">C</text><text class="cls-2" transform="translate(36.14 71.82) rotate(-90)">2</text><text class="cls-6" transform="translate(28.53 67.5) scale(0.2 1)">C</text><text class="cls-2" transform="translate(46.41 71.82) rotate(-90)">3</text><text class="cls-7" transform="translate(39.11 69.04) scale(0.18 1)">A</text><text class="cls-2" transform="translate(56.68 71.82) rotate(-90)">4</text><text class="cls-8" transform="translate(49.13 68.92) scale(2.27 1)">G</text><text class="cls-9" transform="translate(49.37 63.8) scale(0.29 1)">A</text><text class="cls-2" transform="translate(66.95 71.82) rotate(-90)">5</text><text class="cls-10" transform="translate(59.38 68.98) scale(5.39 1)">C</text><text class="cls-11" transform="translate(59.8 66.53) scale(2.58 1)">T</text><text class="cls-12" transform="translate(59.71 61.43) scale(0.85 1)">A</text><text class="cls-2" transform="translate(77.22 71.82) rotate(-90)">6</text><text class="cls-13" transform="translate(69.73 68.78) scale(1.01 1)">G</text><text class="cls-14" transform="translate(70.06 57.64) scale(0.66 1)">T</text><text class="cls-2" transform="translate(87.49 71.82) rotate(-90)">7</text><text class="cls-5" transform="translate(79.9 68.82) scale(1.43 1)">C</text><text class="cls-15" transform="translate(80.32 60.39) scale(0.48 1)">T</text><text class="cls-2" transform="translate(97.75 71.82) rotate(-90)">8</text><text class="cls-16" transform="translate(90.48 69.04) scale(5.83 1)">A</text><text class="cls-17" transform="translate(90.15 66.71) scale(1.93 1)">C</text><text class="cls-18" transform="translate(90.57 60.39) scale(1.48 1)">T</text><text class="cls-2" transform="translate(108.03 71.82) rotate(-90)">9</text><text class="cls-19" transform="translate(100.74 69.04) scale(0.18 1)">A</text><text class="cls-2" transform="translate(118.29 74.23) rotate(-90)">10</text><text class="cls-20" transform="translate(111.09 69.04) scale(1.11 1)">T</text><text class="cls-21" transform="translate(111 57.64) scale(0.56 1)">A</text><text class="cls-2" transform="translate(128.56 74.23) rotate(-90)">11</text><text class="cls-22" transform="translate(121.34 69.04) scale(2.48 1)">T</text><text class="cls-23" transform="translate(120.93 62.83) scale(0.32 1)">C</text><text class="cls-2" transform="translate(138.83 74.23) rotate(-90)">12</text><text class="cls-7" transform="translate(131.6 69.04) scale(0.18 1)">A</text><text class="cls-2" transform="translate(149.1 74.23) rotate(-90)">13</text><text class="cls-24" transform="translate(141.53 68.95) scale(3.6 1)">C</text><text class="cls-25" transform="translate(141.61 65.32) scale(3.42 1)">G</text><text class="cls-26" transform="translate(141.85 61.75) scale(1.52 1)">A</text><text class="cls-2" transform="translate(159.37 74.23) rotate(-90)">14</text><text class="cls-27" transform="translate(152.11 69.04) scale(3.2 1)">A</text><text class="cls-28" transform="translate(151.79 65.31) scale(3.6 1)">C</text><text class="cls-29" transform="translate(151.87 61.59) scale(1.62 1)">G</text><text class="cls-2" transform="translate(169.64 74.23) rotate(-90)">15</text><text class="cls-30" transform="translate(162.37 69.04) scale(1.27 1)">A</text><text class="cls-15" transform="translate(162.46 60.39) scale(0.48 1)">T</text><text class="cls-31" transform="translate(9.4 70.19)">0</text><text class="cls-31" transform="translate(9.4 40.68)">1</text><text class="cls-31" transform="translate(9.4 14.22)">2</text><text class="cls-31" transform="translate(8.58 42.4) rotate(-90)">bits</text><text class="cls-32" transform="translate(18.62 87.05)"><tspan class="cls-33">Y</tspan><tspan x="6.59" y="0">cfQ</tspan></text><text class="cls-34" transform="translate(104.95 87.05)">Nonsignificant</text></svg>