<svg id="Layer_1" data-name="Layer 1" xmlns="http://www.w3.org/2000/svg" width="2.33in" height="1.1in" viewBox="0 0 167.41 78.96"><defs><style>.cls-1{fill:none;stroke:#000;stroke-miterlimit:10;}.cls-2,.cls-36,.cls-55,.cls-57{font-size:8px;}.cls-2,.cls-3,.cls-55{fill:#231f20;}.cls-2,.cls-56{font-family:ArialMT, Arial;}.cls-3{font-size:3.93px;}.cls-10,.cls-11,.cls-12,.cls-14,.cls-15,.cls-16,.cls-17,.cls-18,.cls-19,.cls-20,.cls-21,.cls-22,.cls-23,.cls-24,.cls-25,.cls-26,.cls-27,.cls-28,.cls-29,.cls-3,.cls-30,.cls-31,.cls-32,.cls-33,.cls-34,.cls-35,.cls-37,.cls-39,.cls-4,.cls-41,.cls-42,.cls-44,.cls-45,.cls-46,.cls-47,.cls-48,.cls-49,.cls-5,.cls-50,.cls-51,.cls-52,.cls-53,.cls-54,.cls-6,.cls-7,.cls-8{font-family:Helvetica-Bold, Helvetica;font-weight:700;}.cls-4{font-size:1.72px;}.cls-13,.cls-16,.cls-17,.cls-25,.cls-29,.cls-33,.cls-34,.cls-39,.cls-4,.cls-41,.cls-44,.cls-51,.cls-9{fill:#0c8140;}.cls-5{font-size:2.12px;}.cls-11,.cls-14,.cls-18,.cls-21,.cls-24,.cls-26,.cls-30,.cls-36,.cls-37,.cls-42,.cls-47,.cls-49,.cls-5,.cls-54{fill:#fcb316;}.cls-6{font-size:2.52px;}.cls-10,.cls-15,.cls-19,.cls-20,.cls-27,.cls-32,.cls-35,.cls-46,.cls-50,.cls-52,.cls-6,.cls-8{fill:#35459c;}.cls-41,.cls-7{font-size:3.02px;}.cls-12,.cls-22,.cls-23,.cls-28,.cls-31,.cls-38,.cls-40,.cls-43,.cls-45,.cls-48,.cls-53,.cls-7{fill:#cb2026;}.cls-8{font-size:4.05px;}.cls-43,.cls-9{font-size:35.7px;}.cls-13,.cls-36,.cls-38,.cls-40,.cls-43,.cls-9{font-family:MyriadPro-Regular, Myriad Pro;}.cls-10{font-size:0.67px;}.cls-11{font-size:1.83px;}.cls-12{font-size:3.05px;}.cls-13{font-size:37.23px;}.cls-14{font-size:1.21px;}.cls-15{font-size:9.53px;}.cls-16{font-size:20.17px;}.cls-17{font-size:3.29px;}.cls-18{font-size:5.07px;}.cls-19{font-size:25.12px;}.cls-20{font-size:0.47px;}.cls-21{font-size:10.94px;}.cls-22{font-size:23.79px;}.cls-23{font-size:1.81px;}.cls-24{font-size:2px;}.cls-25{font-size:2.96px;}.cls-26{font-size:0.22px;}.cls-27{font-size:0.91px;}.cls-28{font-size:2.85px;}.cls-29{font-size:3.08px;}.cls-30{font-size:0.18px;}.cls-31{font-size:0.86px;}.cls-32{font-size:8.02px;}.cls-33{font-size:14.35px;}.cls-34{font-size:1.09px;}.cls-35{font-size:2.59px;}.cls-37{font-size:7.85px;}.cls-38{font-size:44.85px;}.cls-39{font-size:1.4px;}.cls-40{font-size:69.29px;}.cls-42{font-size:4.1px;}.cls-44{font-size:0.17px;}.cls-45{font-size:1.26px;}.cls-46{font-size:1.65px;}.cls-47{font-size:3.17px;}.cls-48{font-size:0.2px;}.cls-49{font-size:0.47px;}.cls-50{font-size:0.86px;}.cls-51{font-size:1.72px;}.cls-52{font-size:2.01px;}.cls-53{font-size:5px;}.cls-54{font-size:4.89px;}.cls-55,.cls-57{font-family:Arial-ItalicMT, Arial;font-style:italic;}.cls-56{font-style:normal;}.cls-58{letter-spacing:-0.01em;}.cls-59{fill:#090505;}</style></defs><polyline class="cls-1" points="12.86 59.3 14.83 59.3 14.83 6.35"/><text class="cls-2" transform="translate(7.68 61.62)">0</text><line class="cls-1" x1="12.86" y1="59.3" x2="14.83" y2="59.3"/><text class="cls-2" transform="translate(7.68 35.1)">1</text><line class="cls-1" x1="12.86" y1="32.83" x2="14.83" y2="32.83"/><text class="cls-2" transform="translate(7.68 8.65)">2</text><line class="cls-1" x1="12.86" y1="6.35" x2="14.83" y2="6.35"/><text class="cls-2" transform="translate(6.87 36.83) rotate(-90)">bits</text><text class="cls-3" transform="translate(21.32 61.64) rotate(-90)">1</text><text class="cls-4" transform="translate(15.18 59) scale(10.49 1)">T</text><text class="cls-5" transform="translate(14.57 57.5) scale(7.68 1)">G</text><text class="cls-6" transform="translate(14.52 55.72) scale(6.98 1)">C</text><text class="cls-3" transform="translate(30.66 61.64) rotate(-90)">2</text><text class="cls-7" transform="translate(24.09 59.28) scale(5.3 1)">A</text><text class="cls-8" transform="translate(23.85 56.87) scale(4.35 1)">C</text><text class="cls-9" transform="translate(24.51 53.77) scale(0.51 1)">T</text><text class="cls-3" transform="translate(40 61.64) rotate(-90)">3</text><text class="cls-10" transform="translate(33.18 59.27) scale(26.27 1)">C</text><text class="cls-11" transform="translate(33.23 58.46) scale(8.88 1)">G</text><text class="cls-12" transform="translate(33.42 56.95) scale(5.24 1)">A</text><text class="cls-13" transform="translate(33.83 54.54) scale(0.49 1)">T</text><text class="cls-3" transform="translate(49.35 61.64) rotate(-90)">4</text><text class="cls-14" transform="translate(42.64 59.27) scale(13.45 1)">G</text><text class="cls-15" transform="translate(42.59 58.03) scale(1.85 1)">C</text><text class="cls-16" transform="translate(43.24 51.21) scale(0.9 1)">T</text><text class="cls-3" transform="translate(58.69 61.64) rotate(-90)">5</text><text class="cls-17" transform="translate(52.57 59.28) scale(5.49 1)">T</text><text class="cls-18" transform="translate(51.96 56.75) scale(3.21 1)">G</text><text class="cls-19" transform="translate(51.92 52.65) scale(0.7 1)">C</text><text class="cls-3" transform="translate(68.03 61.64) rotate(-90)">6</text><text class="cls-20" transform="translate(61.24 59.27) scale(37.5 1)">C</text><text class="cls-21" transform="translate(61.3 58.6) scale(1.49 1)">G</text><text class="cls-22" transform="translate(61.48 50.75) scale(0.67 1)">A</text><text class="cls-3" transform="translate(77.38 61.64) rotate(-90)">7</text><text class="cls-23" transform="translate(70.81 58.97) scale(8.81 1)">A</text><text class="cls-24" transform="translate(70.62 57.43) scale(8.13 1)">G</text><text class="cls-25" transform="translate(71.23 55.76) scale(6.1 1)">T</text><text class="cls-3" transform="translate(86.72 61.64) rotate(-90)">8</text><text class="cls-26" transform="translate(79.95 59.27) scale(72.93 1)">G</text><text class="cls-27" transform="translate(79.9 58.78) scale(19.31 1)">C</text><text class="cls-28" transform="translate(80.14 57.88) scale(5.62 1)">A</text><text class="cls-29" transform="translate(80.56 55.59) scale(5.86 1)">T</text><text class="cls-3" transform="translate(96.06 61.64) rotate(-90)">9</text><text class="cls-30" transform="translate(89.36 59.28) scale(88.5 1)">G</text><text class="cls-31" transform="translate(89.55 58.84) scale(18.54 1)">A</text><text class="cls-32" transform="translate(89.31 57.88) scale(2.2 1)">C</text><text class="cls-33" transform="translate(89.96 52.04) scale(1.26 1)">T</text><text class="cls-3" transform="translate(105.41 63.66) rotate(-90)">10</text><text class="cls-34" transform="translate(99.29 59.28) scale(16.51 1)">T</text><text class="cls-35" transform="translate(98.64 58.22) scale(6.8 1)">C</text><text class="cls-36" transform="translate(98.69 55.73) scale(0.3 1)">G</text><text class="cls-3" transform="translate(114.75 63.66) rotate(-90)">11</text><text class="cls-37" transform="translate(108.02 59.22) scale(2.07 1)">G</text><text class="cls-38" transform="translate(108.2 53.56) scale(0.36 1)">A</text><text class="cls-3" transform="translate(124.1 63.66) rotate(-90)">12</text><text class="cls-39" transform="translate(117.95 59.28) scale(12.91 1)">T</text><text class="cls-40" transform="translate(117.53 57.99) scale(0.23 1)">A</text><text class="cls-3" transform="translate(133.44 63.66) rotate(-90)">13</text><text class="cls-41" transform="translate(127.28 59.28) scale(5.99 1)">T</text><text class="cls-42" transform="translate(126.68 56.89) scale(3.97 1)">G</text><text class="cls-43" transform="translate(126.86 53.77) scale(0.45 1)">A</text><text class="cls-3" transform="translate(142.78 63.66) rotate(-90)">14</text><text class="cls-44" transform="translate(136.62 59.28)">T</text><text class="cls-45" transform="translate(136.19 58.86) scale(12.66 1)">A</text><text class="cls-46" transform="translate(135.96 57.67) scale(10.69 1)">C</text><text class="cls-47" transform="translate(136 56.21) scale(5.14 1)">G</text><text class="cls-3" transform="translate(152.13 63.66) rotate(-90)">15</text><text class="cls-48" transform="translate(145.6 59.28) scale(79.08 1)">A</text><text class="cls-49" transform="translate(145.41 58.82) scale(34.86 1)">G</text><text class="cls-50" transform="translate(145.36 58.14) scale(20.43 1)">C</text><text class="cls-51" transform="translate(146.02 57.24) scale(10.53 1)">T</text><text class="cls-3" transform="translate(161.47 63.66) rotate(-90)">16</text><text class="cls-52" transform="translate(154.69 59) scale(8.77 1)">C</text><text class="cls-53" transform="translate(154.93 57.3) scale(3.2 1)">A</text><text class="cls-54" transform="translate(154.74 53.57) scale(3.33 1)">G</text><text class="cls-55" transform="translate(45.47 75.31)">E-value<tspan class="cls-56" x="27.13" y="0">=1.8 × 10</tspan></text><text class="cls-2" transform="translate(106.41 72.64) scale(0.58)">-37</text><text class="cls-57" transform="translate(22.51 75.31)"><tspan class="cls-58">y</tspan><tspan x="3.94" y="0">ciT</tspan></text><line class="cls-1" x1="29.01" y1="6.27" x2="71.82" y2="6.27"/><path d="M72.2,8.94,71.1,7.13l.06,0L74.1,8.26l3.07.68-3.07.67-2.94,1.17-.06,0Z" transform="translate(-1.28 -2.66)"/><line class="cls-1" x1="128.72" y1="6.35" x2="85.91" y2="6.35"/><path d="M88.08,9l1.1,1.8-.07,0L86.18,9.69,83.11,9l3.07-.68,2.93-1.16.07,0Z" transform="translate(-1.28 -2.66)"/><path class="cls-59" d="M80.75,9a1.07,1.07,0,1,0-1.06,1.06A1.06,1.06,0,0,0,80.75,9Z" transform="translate(-1.28 -2.66)"/></svg>