<svg id="Layer_1" data-name="Layer 1" xmlns="http://www.w3.org/2000/svg" width="2.44in" height="1.59in" viewBox="0 0 175.71 114.83"><defs><style>.cls-1{fill:none;stroke:#000;stroke-miterlimit:10;}.cls-2{font-size:4.61px;}.cls-16,.cls-2{fill:#231f20;}.cls-10,.cls-11,.cls-12,.cls-13,.cls-2,.cls-3,.cls-4,.cls-5,.cls-6,.cls-7,.cls-8,.cls-9{font-family:Helvetica-Bold, Helvetica;font-weight:700;}.cls-10,.cls-3{font-size:85.64px;}.cls-3,.cls-4,.cls-8{fill:#cb2026;}.cls-13,.cls-4{font-size:15px;}.cls-5{font-size:30.54px;}.cls-10,.cls-13,.cls-5{fill:#0f8140;}.cls-6{font-size:81.89px;}.cls-12,.cls-6,.cls-7{fill:#36459c;}.cls-7{font-size:14.34px;}.cls-8{font-size:30.54px;}.cls-9{font-size:29.08px;}.cls-11,.cls-9{fill:#fcb316;}.cls-11{font-size:14.29px;}.cls-12{font-size:29.2px;}.cls-14,.cls-16,.cls-17{font-size:10px;}.cls-14,.cls-16{font-family:ArialMT, Arial;}.cls-15,.cls-17{letter-spacing:-0.01em;}.cls-17{font-family:Arial-ItalicMT, Arial;font-style:italic;}.cls-18{letter-spacing:-0.03em;}</style></defs><polyline class="cls-1" points="15.7 73.67 18 73.67 18 11.62"/><line class="cls-1" x1="15.7" y1="73.67" x2="18" y2="73.67"/><line class="cls-1" x1="15.7" y1="42.65" x2="18" y2="42.65"/><line class="cls-1" x1="15.7" y1="11.62" x2="18" y2="11.62"/><text class="cls-2" transform="translate(25.74 76.61) rotate(-90)">1</text><text class="cls-3" transform="translate(17.98 73.64) scale(0.18 1)">A</text><text class="cls-2" transform="translate(36.7 76.61) rotate(-90)">2</text><text class="cls-3" transform="translate(28.93 73.64) scale(0.18 1)">A</text><text class="cls-2" transform="translate(47.66 76.61) rotate(-90)">3</text><text class="cls-4" transform="translate(39.88 73.64) scale(1.04 1)">A</text><text class="cls-5" transform="translate(39.98 62.51) scale(0.59 1)">T</text><text class="cls-2" transform="translate(58.62 76.61) rotate(-90)">4</text><text class="cls-6" transform="translate(50.48 72) scale(0.2 1)">C</text><text class="cls-2" transform="translate(69.58 76.61) rotate(-90)">5</text><text class="cls-7" transform="translate(61.43 73.35) scale(1.17 1)">C</text><text class="cls-8" transform="translate(61.78 62.51) scale(0.51 1)">A</text><text class="cls-2" transform="translate(80.53 76.61) rotate(-90)">6</text><text class="cls-3" transform="translate(72.73 73.64) scale(0.18 1)">A</text><text class="cls-2" transform="translate(91.49 76.61) rotate(-90)">7</text><text class="cls-7" transform="translate(83.43 73.35) scale(1.17 1)">C</text><text class="cls-9" transform="translate(83.52 61.99) scale(0.54 1)">G</text><text class="cls-2" transform="translate(102.45 76.61) rotate(-90)">8</text><text class="cls-10" transform="translate(94.82 73.64) scale(0.21 1)">T</text><text class="cls-2" transform="translate(113.41 76.61) rotate(-90)">9</text><text class="cls-6" transform="translate(105.33 72) scale(0.2 1)">C</text><text class="cls-2" transform="translate(124.37 79.17) rotate(-90)">10</text><text class="cls-11" transform="translate(116.37 73.38) scale(1.11 1)">G</text><text class="cls-12" transform="translate(116.28 61.93) scale(0.57 1)">C</text><text class="cls-2" transform="translate(135.33 79.17) rotate(-90)">11</text><text class="cls-6" transform="translate(127.23 72) scale(0.2 1)">C</text><text class="cls-2" transform="translate(146.29 79.17) rotate(-90)">12</text><text class="cls-13" transform="translate(138.63 73.64) scale(1.21 1)">T</text><text class="cls-8" transform="translate(138.53 62.51) scale(0.51 1)">A</text><text class="cls-2" transform="translate(157.25 79.17) rotate(-90)">13</text><text class="cls-7" transform="translate(149.13 73.35) scale(1.17 1)">C</text><text class="cls-9" transform="translate(149.22 61.99) scale(0.54 1)">G</text><text class="cls-2" transform="translate(168.21 79.17) rotate(-90)">14</text><text class="cls-6" transform="translate(160.08 72) scale(0.2 1)">C</text><text class="cls-14" transform="translate(18.38 93.19)"><tspan class="cls-15">Y</tspan><tspan x="6.59" y="0">bcM</tspan></text><text class="cls-16" transform="translate(9.4 71.88)">0</text><text class="cls-16" transform="translate(9.4 45.37)">1</text><text class="cls-16" transform="translate(9.4 18.91)">2</text><text class="cls-16" transform="translate(8.58 47.1) rotate(-90)">bits</text><text class="cls-17" transform="translate(113.51 93.19)">Nonsignifican<tspan class="cls-18" x="58.99" y="0">t</tspan></text></svg>