<svg id="Layer_1" data-name="Layer 1" xmlns="http://www.w3.org/2000/svg" width="2.27in" height="1.5in" viewBox="0 0 163.75 107.65"><defs><style>.cls-1{fill:none;stroke:#000;stroke-miterlimit:10;}.cls-2{font-size:4.32px;}.cls-14,.cls-2{fill:#231f20;}.cls-10,.cls-11,.cls-12,.cls-13,.cls-2,.cls-3,.cls-4,.cls-5,.cls-6,.cls-7,.cls-8,.cls-9{font-family:Helvetica-Bold, Helvetica;font-weight:700;}.cls-3,.cls-6{font-size:80.29px;}.cls-12,.cls-3,.cls-5,.cls-9{fill:#0f8140;}.cls-4,.cls-5{font-size:19.7px;}.cls-10,.cls-4,.cls-6,.cls-8{fill:#cb2026;}.cls-7{font-size:76.46px;}.cls-11,.cls-7{fill:#fcb316;}.cls-8{font-size:11.5px;}.cls-9{font-size:35.51px;}.cls-10{font-size:4.55px;}.cls-11{font-size:4.33px;}.cls-12{font-size:9.6px;}.cls-13{font-size:76.77px;fill:#36459c;}.cls-14,.cls-15,.cls-17{font-size:10px;}.cls-14,.cls-15{font-family:ArialMT, Arial;}.cls-16,.cls-17{letter-spacing:-0.01em;}.cls-17{font-family:Arial-ItalicMT, Arial;font-style:italic;}</style></defs><polyline class="cls-1" points="17.16 69.06 19.32 69.06 19.32 10.9"/><line class="cls-1" x1="17.16" y1="69.06" x2="19.32" y2="69.06"/><line class="cls-1" x1="17.16" y1="39.98" x2="19.32" y2="39.98"/><line class="cls-1" x1="17.16" y1="10.9" x2="19.32" y2="10.9"/><text class="cls-2" transform="translate(26.57 71.82) rotate(-90)">1</text><text class="cls-3" transform="translate(19.39 69.04) scale(0.21 1)">T</text><text class="cls-2" transform="translate(36.85 71.82) rotate(-90)">2</text><text class="cls-4" transform="translate(29.57 69.04) scale(0.74 1)">A</text><text class="cls-5" transform="translate(29.66 54.55) scale(0.86 1)">T</text><text class="cls-2" transform="translate(47.12 71.82) rotate(-90)">3</text><text class="cls-6" transform="translate(39.83 69.04) scale(0.18 1)">A</text><text class="cls-2" transform="translate(57.4 71.82) rotate(-90)">4</text><text class="cls-7" transform="translate(49.85 67.66) scale(0.19 1)">G</text><text class="cls-2" transform="translate(67.67 71.82) rotate(-90)">5</text><text class="cls-3" transform="translate(60.45 69.04) scale(0.21 1)">T</text><text class="cls-2" transform="translate(77.94 71.82) rotate(-90)">6</text><text class="cls-3" transform="translate(70.72 69.04) scale(0.21 1)">T</text><text class="cls-2" transform="translate(88.22 71.82) rotate(-90)">7</text><text class="cls-3" transform="translate(81.07 69.04) scale(0.21 1)">T</text><text class="cls-2" transform="translate(98.49 71.82) rotate(-90)">8</text><text class="cls-8" transform="translate(91.25 69.04) scale(1.27 1)">A</text><text class="cls-9" transform="translate(91.34 60.39) scale(0.48 1)">T</text><text class="cls-2" transform="translate(108.77 71.82) rotate(-90)">9</text><text class="cls-10" transform="translate(101.52 69.04) scale(3.21 1)">A</text><text class="cls-11" transform="translate(101.27 65.32) scale(3.42 1)">G</text><text class="cls-12" transform="translate(101.6 61.75) scale(1.77 1)">T</text><text class="cls-2" transform="translate(119.04 74.23) rotate(-90)">10</text><text class="cls-13" transform="translate(111.45 67.5) scale(0.2 1)">C</text><text class="cls-2" transform="translate(129.31 74.23) rotate(-90)">11</text><text class="cls-3" transform="translate(122.14 69.04) scale(0.21 1)">T</text><text class="cls-2" transform="translate(139.59 74.23) rotate(-90)">12</text><text class="cls-4" transform="translate(132.31 69.04) scale(0.74 1)">A</text><text class="cls-5" transform="translate(132.4 54.55) scale(0.86 1)">T</text><text class="cls-2" transform="translate(149.86 74.23) rotate(-90)">13</text><text class="cls-6" transform="translate(142.58 69.04) scale(0.18 1)">A</text><text class="cls-2" transform="translate(160.14 74.23) rotate(-90)">14</text><text class="cls-6" transform="translate(152.85 69.04) scale(0.18 1)">A</text><text class="cls-14" transform="translate(9.4 68.43)">0</text><text class="cls-14" transform="translate(9.4 41.91)">1</text><text class="cls-14" transform="translate(10.48 14.27)">2</text><text class="cls-14" transform="translate(8.58 43.64) rotate(-90)">bits</text><text class="cls-15" transform="translate(19.32 83.92)"><tspan class="cls-16">Y</tspan><tspan x="6.59" y="0">bdO</tspan></text><text class="cls-17" transform="translate(101.54 84.04)">Nonsignificant</text></svg>