<svg id="Layer_1" data-name="Layer 1" xmlns="http://www.w3.org/2000/svg" width="2.23in" height="1.06in" viewBox="0 0 160.6 76.36"><defs><style>.cls-1,.cls-3{fill:none;stroke:#000;stroke-miterlimit:10;}.cls-1{stroke-width:0.75px;}.cls-2{font-size:7px;}.cls-2,.cls-4,.cls-64,.cls-67{fill:#231f20;}.cls-2,.cls-4,.cls-66,.cls-67{font-family:MyriadPro-Regular, Myriad Pro;}.cls-4{font-size:6px;}.cls-5{font-size:0.5px;}.cls-14,.cls-16,.cls-19,.cls-23,.cls-25,.cls-28,.cls-32,.cls-35,.cls-39,.cls-44,.cls-48,.cls-5,.cls-50,.cls-53,.cls-54,.cls-58,.cls-63,.cls-9{fill:#098141;}.cls-10,.cls-11,.cls-12,.cls-13,.cls-14,.cls-15,.cls-16,.cls-17,.cls-18,.cls-19,.cls-20,.cls-21,.cls-22,.cls-23,.cls-24,.cls-25,.cls-26,.cls-27,.cls-28,.cls-29,.cls-30,.cls-31,.cls-32,.cls-33,.cls-34,.cls-35,.cls-36,.cls-37,.cls-38,.cls-39,.cls-40,.cls-41,.cls-42,.cls-43,.cls-44,.cls-45,.cls-46,.cls-47,.cls-48,.cls-49,.cls-5,.cls-50,.cls-51,.cls-52,.cls-53,.cls-54,.cls-55,.cls-56,.cls-57,.cls-58,.cls-59,.cls-6,.cls-60,.cls-61,.cls-62,.cls-63,.cls-7,.cls-8,.cls-9{font-family:Helvetica-Bold, Helvetica;font-weight:700;}.cls-6{font-size:1.32px;}.cls-10,.cls-15,.cls-18,.cls-22,.cls-33,.cls-34,.cls-41,.cls-45,.cls-47,.cls-52,.cls-6,.cls-61{fill:#34479a;}.cls-7{font-size:1.79px;}.cls-11,.cls-13,.cls-17,.cls-20,.cls-26,.cls-29,.cls-30,.cls-36,.cls-40,.cls-42,.cls-46,.cls-51,.cls-56,.cls-59,.cls-62,.cls-7{fill:#ca2128;}.cls-8{font-size:5.97px;}.cls-12,.cls-21,.cls-24,.cls-27,.cls-31,.cls-37,.cls-38,.cls-43,.cls-49,.cls-55,.cls-57,.cls-60,.cls-8{fill:#fab118;}.cls-9{font-size:0.39px;}.cls-10{font-size:0.5px;}.cls-11{font-size:0.9px;}.cls-12{font-size:1.33px;}.cls-13{font-size:2.73px;}.cls-14{font-size:3.42px;}.cls-15{font-size:0.3px;}.cls-16{font-size:0.53px;}.cls-17{font-size:0.64px;}.cls-18{font-size:1.56px;}.cls-19{font-size:48.97px;}.cls-20{font-size:0.68px;}.cls-21{font-size:0.67px;}.cls-22{font-size:3.69px;}.cls-23{font-size:20.48px;}.cls-24{font-size:2.9px;}.cls-25{font-size:2.96px;}.cls-26{font-size:21.77px;}.cls-27{font-size:0.91px;}.cls-28{font-size:4.8px;}.cls-29{font-size:26.76px;}.cls-30{font-size:1.56px;}.cls-31{font-size:5.3px;}.cls-32{font-size:16.94px;}.cls-33{font-size:55.95px;}.cls-34{font-size:0.29px;}.cls-35{font-size:0.97px;}.cls-36{font-size:4.29px;}.cls-37{font-size:10.05px;}.cls-38{font-size:0.15px;}.cls-39{font-size:0.28px;}.cls-40{font-size:0.4px;}.cls-41{font-size:1.01px;}.cls-42{font-size:0.5px;}.cls-43{font-size:2.18px;}.cls-44{font-size:2.22px;}.cls-45{font-size:15.48px;}.cls-46{font-size:1.18px;}.cls-47{font-size:2.64px;}.cls-48{font-size:35.08px;}.cls-49{font-size:56.6px;}.cls-50{font-size:5.81px;}.cls-51{font-size:33.6px;}.cls-52{font-size:4.47px;}.cls-53{font-size:37.8px;}.cls-54{font-size:1.22px;}.cls-55{font-size:7.36px;}.cls-56{font-size:10.66px;}.cls-57{font-size:1.33px;}.cls-58{font-size:1.35px;}.cls-59{font-size:40.74px;}.cls-60{font-size:0.14px;}.cls-61{font-size:0.46px;}.cls-62{font-size:0.8px;}.cls-63{font-size:1.47px;}.cls-64,.cls-67{font-size:6.5px;}.cls-64,.cls-68{font-family:MyriadPro-It, Myriad Pro;font-style:italic;}.cls-65{letter-spacing:-0.02em;}.cls-66{font-style:normal;}.cls-68{font-size:7.8px;}.cls-69{fill:#090505;}</style></defs><polyline class="cls-1" points="11.87 49.74 13.32 49.74 13.32 10.55"/><text class="cls-2" transform="translate(7.87 50.72)">0</text><line class="cls-3" x1="11.87" y1="49.74" x2="13.32" y2="49.74"/><text class="cls-2" transform="translate(7.87 31.09)">1</text><line class="cls-3" x1="11.87" y1="30.15" x2="13.32" y2="30.15"/><text class="cls-2" transform="translate(7.87 11.52)">2</text><line class="cls-3" x1="11.87" y1="10.55" x2="13.32" y2="10.55"/><text class="cls-2" transform="translate(5.86 32.74) rotate(-90)">Bits</text><text class="cls-4" transform="translate(18.12 55.57) rotate(-90)">1</text><text class="cls-5" transform="translate(13.58 49.72) scale(26.67 1)">T</text><text class="cls-6" transform="translate(13.09 49.13) scale(9.88 1)">C</text><text class="cls-7" transform="translate(13.27 47.99) scale(6.6 1)">A</text><text class="cls-8" transform="translate(13.13 46.5) scale(2.02 1)">G</text><text class="cls-4" transform="translate(25.02 55.57) rotate(-90)">2</text><text class="cls-9" transform="translate(20.46 49.5) scale(33.81 1)">T</text><text class="cls-10" transform="translate(19.98 48.95) scale(25.81 1)">C</text><text class="cls-11" transform="translate(20.15 48.41) scale(13.17 1)">A</text><text class="cls-4" transform="translate(31.93 55.57) rotate(-90)">3</text><text class="cls-12" transform="translate(26.96 49.48) scale(9.05 1)">G</text><text class="cls-13" transform="translate(27.1 48.34) scale(4.33 1)">A</text><text class="cls-14" transform="translate(27.4 46.28) scale(3.91 1)">T</text><text class="cls-4" transform="translate(38.66 55.57) rotate(-90)">4</text><text class="cls-15" transform="translate(33.81 49.5) scale(43.82 1)">C</text><text class="cls-16" transform="translate(34.29 49.08) scale(25.25 1)">T</text><text class="cls-17" transform="translate(33.98 48.45) scale(18.46 1)">A</text><text class="cls-4" transform="translate(46.43 55.57) rotate(-90)">5</text><text class="cls-18" transform="translate(40.69 49.7) scale(8.33 1)">C</text><text class="cls-19" transform="translate(42.04 48.45) scale(0.27 1)">T</text><text class="cls-4" transform="translate(52.82 55.57) rotate(-90)">6</text><text class="cls-20" transform="translate(47.81 49.72) scale(17.32 1)">A</text><text class="cls-21" transform="translate(47.67 49.01) scale(18 1)">G</text><text class="cls-22" transform="translate(47.64 48.27) scale(3.53 1)">C</text><text class="cls-23" transform="translate(48.12 45.54) scale(0.65 1)">T</text><text class="cls-4" transform="translate(59.38 55.57) rotate(-90)">7</text><text class="cls-24" transform="translate(54.56 49.7) scale(4.15 1)">G</text><text class="cls-25" transform="translate(55 47.52) scale(4.51 1)">T</text><text class="cls-26" transform="translate(54.69 45.25) scale(0.54 1)">A</text><text class="cls-4" transform="translate(66.28 55.57) rotate(-90)">8</text><text class="cls-27" transform="translate(61.44 49.71) scale(13.18 1)">G</text><text class="cls-28" transform="translate(61.89 48.85) scale(2.78 1)">T</text><text class="cls-29" transform="translate(61.58 45.73) scale(0.44 1)">A</text><text class="cls-4" transform="translate(72.84 55.57) rotate(-90)">9</text><text class="cls-30" transform="translate(68.52 49.72) scale(7.56 1)">A</text><text class="cls-31" transform="translate(68.38 48.44) scale(2.27 1)">G</text><text class="cls-32" transform="translate(68.83 44.53) scale(0.79 1)">T</text><text class="cls-4" transform="translate(80.27 58.7) rotate(-90)">10</text><text class="cls-33" transform="translate(75.24 49.45) scale(0.23 1)">C</text><text class="cls-4" transform="translate(87.17 57.7) rotate(-90)">11</text><text class="cls-34" transform="translate(82.18 49.72) scale(44.24 1)">C</text><text class="cls-35" transform="translate(82.66 49.29) scale(13.79 1)">T</text><text class="cls-36" transform="translate(82.35 48.37) scale(2.76 1)">A</text><text class="cls-37" transform="translate(82.21 45.18) scale(1.2 1)">G</text><text class="cls-4" transform="translate(94.08 57.7) rotate(-90)">12</text><text class="cls-38" transform="translate(89.11 49.72) scale(82.04 1)">G</text><text class="cls-39" transform="translate(89.54 49.38) scale(48.23 1)">T</text><text class="cls-40" transform="translate(89.23 48.99) scale(29.2 1)">A</text><text class="cls-41" transform="translate(89.06 48.42) scale(12.9 1)">C</text><text class="cls-4" transform="translate(101.68 57.7) rotate(-90)">13</text><text class="cls-42" transform="translate(96.12 49.72) scale(23.61 1)">A</text><text class="cls-43" transform="translate(95.98 49.13) scale(5.53 1)">G</text><text class="cls-44" transform="translate(96.43 47.41) scale(6.01 1)">T</text><text class="cls-45" transform="translate(95.95 45.51) scale(0.84 1)">C</text><text class="cls-4" transform="translate(107.89 57.7) rotate(-90)">14</text><text class="cls-46" transform="translate(103.06 49.72) scale(10.01 1)">A</text><text class="cls-47" transform="translate(102.89 48.66) scale(4.94 1)">C</text><text class="cls-48" transform="translate(103.37 46.64) scale(0.38 1)">T</text><text class="cls-4" transform="translate(114.97 57.7) rotate(-90)">15</text><text class="cls-49" transform="translate(109.81 48.67) scale(0.21 1)">G</text><text class="cls-4" transform="translate(121.18 57.7) rotate(-90)">16</text><text class="cls-50" transform="translate(117.14 49.72) scale(2.3 1)">T</text><text class="cls-51" transform="translate(116.83 45.93) scale(0.35 1)">A</text><text class="cls-4" transform="translate(128.61 57.7) rotate(-90)">17</text><text class="cls-52" transform="translate(123.61 49.67) scale(2.91 1)">C</text><text class="cls-53" transform="translate(124.09 46.73) scale(0.35 1)">T</text><text class="cls-4" transform="translate(135.51 57.7) rotate(-90)">18</text><text class="cls-18" transform="translate(130.49 49.7) scale(8.33 1)">C</text><text class="cls-19" transform="translate(130.97 48.4) scale(0.27 1)">T</text><text class="cls-4" transform="translate(142.42 57.7) rotate(-90)">19</text><text class="cls-54" transform="translate(137.86 49.72) scale(10.99 1)">T</text><text class="cls-55" transform="translate(137.41 48.65) scale(1.63 1)">G</text><text class="cls-56" transform="translate(137.55 43.39) scale(1.11 1)">A</text><text class="cls-4" transform="translate(149.15 57.7) rotate(-90)">20</text><text class="cls-57" transform="translate(144.35 49.71) scale(9.07 1)">G</text><text class="cls-58" transform="translate(144.8 48.58) scale(9.87 1)">T</text><text class="cls-59" transform="translate(144.8 47.48) scale(0.29 1)">A</text><text class="cls-4" transform="translate(156.23 57.7) rotate(-90)">21</text><text class="cls-60" transform="translate(151.24 49.72) scale(88.93 1)">G</text><text class="cls-61" transform="translate(151.2 49.4) scale(28.6 1)">C</text><text class="cls-62" transform="translate(151.37 48.86) scale(14.75 1)">A</text><text class="cls-63" transform="translate(151.68 48.06) scale(9.11 1)">T</text><line class="cls-3" x1="40.05" y1="5.06" x2="82.86" y2="5.06"/><path d="M82.89,5.27l-1.1-1.81.07,0,2.93,1.17,3.07.68-3.07.67L81.86,7.11l-.07,0Z" transform="translate(-0.93 -0.21)"/><line class="cls-3" x1="152.16" y1="5.06" x2="105.5" y2="5.06"/><path d="M107.32,5.27l1.1,1.8-.06,0-2.94-1.17-3.07-.67,3.07-.68,2.94-1.17.06,0Z" transform="translate(-0.93 -0.21)"/><text class="cls-64" transform="translate(35.79 65.14)">E-<tspan class="cls-65" x="5.05" y="0">v</tspan><tspan x="7.9" y="0">alue</tspan><tspan class="cls-66" x="19.14" y="0">=1.6 × 10</tspan></text><text class="cls-67" transform="translate(80.12 62.98) scale(0.58)">-64</text><text class="cls-68" transform="translate(12.83 63.89)">ybiH</text><path class="cls-69" d="M96.07,5.52A1.07,1.07,0,1,0,95,6.58,1.07,1.07,0,0,0,96.07,5.52Z" transform="translate(-0.93 -0.21)"/></svg>