<svg id="Layer_1" data-name="Layer 1" xmlns="http://www.w3.org/2000/svg" width="2.41in" height="1.5in" viewBox="0 0 173.2 107.65"><defs><style>.cls-1,.cls-28,.cls-30{font-size:10px;}.cls-1,.cls-3{fill:#231f20;}.cls-1,.cls-28{font-family:ArialMT, Arial;}.cls-2{fill:none;stroke:#000;stroke-miterlimit:10;}.cls-3{font-size:4.32px;}.cls-10,.cls-11,.cls-12,.cls-13,.cls-14,.cls-15,.cls-16,.cls-17,.cls-18,.cls-19,.cls-20,.cls-21,.cls-22,.cls-23,.cls-24,.cls-25,.cls-26,.cls-27,.cls-3,.cls-4,.cls-5,.cls-6,.cls-7,.cls-8,.cls-9{font-family:Helvetica-Bold, Helvetica;font-weight:700;}.cls-4{font-size:13.39px;}.cls-16,.cls-20,.cls-24,.cls-4,.cls-6,.cls-8{fill:#fcb316;}.cls-5{font-size:28.63px;}.cls-11,.cls-17,.cls-22,.cls-5,.cls-7,.cls-9{fill:#0f8140;}.cls-6{font-size:18.76px;}.cls-7{font-size:19.7px;}.cls-8{font-size:4.32px;}.cls-9{font-size:4.54px;}.cls-10{font-size:18.79px;}.cls-10,.cls-12,.cls-14,.cls-18,.cls-19,.cls-27{fill:#36459c;}.cls-11{font-size:8.59px;}.cls-12{font-size:42.97px;}.cls-13{font-size:14.06px;}.cls-13,.cls-15,.cls-21,.cls-23,.cls-25,.cls-26{fill:#cb2026;}.cls-14{font-size:27.38px;}.cls-15{font-size:14.06px;}.cls-16{font-size:2.99px;}.cls-17{font-size:6.78px;}.cls-18{font-size:9.97px;}.cls-19{font-size:13.45px;}.cls-20{font-size:76.46px;}.cls-21,.cls-22{font-size:0.6px;}.cls-23{font-size:80.29px;}.cls-24{font-size:8.18px;}.cls-25{font-size:44.94px;}.cls-26{font-size:19.7px;}.cls-27{font-size:18.83px;}.cls-29,.cls-30{letter-spacing:-0.01em;}.cls-30{font-family:Arial-ItalicMT, Arial;font-style:italic;}</style></defs><text class="cls-1" transform="translate(9.4 14.5)">2</text><text class="cls-1" transform="translate(8.58 42.68) rotate(-90)">bits</text><polyline class="cls-2" points="16.08 69.06 18.24 69.06 18.24 10.9"/><line class="cls-2" x1="16.08" y1="69.06" x2="18.24" y2="69.06"/><line class="cls-2" x1="16.08" y1="39.98" x2="18.24" y2="39.98"/><line class="cls-2" x1="16.08" y1="10.9" x2="18.24" y2="10.9"/><text class="cls-3" transform="translate(25.49 71.82) rotate(-90)">1</text><text class="cls-4" transform="translate(17.98 68.79) scale(1.11 1)">G</text><text class="cls-5" transform="translate(18.31 58.6) scale(0.59 1)">T</text><text class="cls-3" transform="translate(35.76 71.82) rotate(-90)">2</text><text class="cls-6" transform="translate(28.24 68.7) scale(0.79 1)">G</text><text class="cls-7" transform="translate(28.57 54.55) scale(0.86 1)">T</text><text class="cls-3" transform="translate(46.03 71.82) rotate(-90)">3</text><text class="cls-8" transform="translate(38.49 68.96) scale(3.43 1)">G</text><text class="cls-9" transform="translate(38.82 65.41) scale(3.75 1)">T</text><text class="cls-10" transform="translate(38.41 61.41) scale(0.83 1)">C</text><text class="cls-3" transform="translate(56.3 71.82) rotate(-90)">4</text><text class="cls-11" transform="translate(49.08 69.04) scale(1.98 1)">T</text><text class="cls-12" transform="translate(48.67 61.66) scale(0.36 1)">C</text><text class="cls-3" transform="translate(66.57 71.82) rotate(-90)">5</text><text class="cls-13" transform="translate(59.33 69.04) scale(1.04 1)">A</text><text class="cls-14" transform="translate(59.01 58.06) scale(0.57 1)">C</text><text class="cls-3" transform="translate(76.84 71.82) rotate(-90)">6</text><text class="cls-15" transform="translate(69.59 69.04) scale(1.04 1)">A</text><text class="cls-5" transform="translate(69.69 58.6) scale(0.59 1)">T</text><text class="cls-3" transform="translate(87.11 71.82) rotate(-90)">7</text><text class="cls-16" transform="translate(79.61 68.98) scale(4.95 1)">G</text><text class="cls-17" transform="translate(79.94 66.47) scale(2.51 1)">T</text><text class="cls-18" transform="translate(79.52 60.97) scale(1.57 1)">C</text><text class="cls-3" transform="translate(97.38 71.82) rotate(-90)">8</text><text class="cls-19" transform="translate(89.78 68.77) scale(1.17 1)">C</text><text class="cls-5" transform="translate(90.2 58.6) scale(0.59 1)">T</text><text class="cls-3" transform="translate(107.65 71.82) rotate(-90)">9</text><text class="cls-4" transform="translate(100.12 68.79) scale(1.11 1)">G</text><text class="cls-5" transform="translate(100.45 58.6) scale(0.59 1)">T</text><text class="cls-3" transform="translate(117.92 74.22) rotate(-90)">10</text><text class="cls-20" transform="translate(110.38 67.66) scale(0.19 1)">G</text><text class="cls-3" transform="translate(128.19 74.22) rotate(-90)">11</text><text class="cls-21" transform="translate(120.88 68.23) scale(24.27 1)">A</text><text class="cls-22" transform="translate(120.97 67.51) scale(28.31 1)">T</text><text class="cls-3" transform="translate(138.46 74.22) rotate(-90)">12</text><text class="cls-23" transform="translate(131.22 69.04) scale(0.18 1)">A</text><text class="cls-3" transform="translate(148.72 74.22) rotate(-90)">13</text><text class="cls-24" transform="translate(141.24 68.89) scale(1.81 1)">G</text><text class="cls-25" transform="translate(141.48 62.52) scale(0.32 1)">A</text><text class="cls-3" transform="translate(158.99 74.22) rotate(-90)">14</text><text class="cls-26" transform="translate(151.74 69.04) scale(0.74 1)">A</text><text class="cls-27" transform="translate(151.41 54.18) scale(0.83 1)">C</text><text class="cls-3" transform="translate(169.26 74.22) rotate(-90)">15</text><text class="cls-23" transform="translate(161.99 69.04) scale(0.18 1)">A</text><text class="cls-1" transform="translate(9.4 70.46)">0</text><text class="cls-1" transform="translate(9.4 40.95)">1</text><text class="cls-28" transform="translate(18.6 84.04)"><tspan class="cls-29">Y</tspan><tspan x="6.59" y="0">caN</tspan></text><text class="cls-30" transform="translate(111 84.15)">Nonsignificant</text></svg>