<svg id="Layer_1" data-name="Layer 1" xmlns="http://www.w3.org/2000/svg" width="2.21in" height="1.09in" viewBox="0 0 159.4 78.16"><defs><style>.cls-1,.cls-4{font-size:6.5px;}.cls-1,.cls-4,.cls-66,.cls-67{fill:#231f20;}.cls-1,.cls-68{font-family:MyriadPro-It, Myriad Pro;font-style:italic;}.cls-2{letter-spacing:-0.02em;}.cls-3,.cls-4,.cls-66,.cls-67{font-family:MyriadPro-Regular, Myriad Pro;}.cls-3{font-style:normal;}.cls-5,.cls-6{fill:none;stroke:#000;stroke-miterlimit:10;}.cls-6{stroke-width:0.75px;}.cls-7{font-size:0.49px;}.cls-17,.cls-28,.cls-35,.cls-38,.cls-42,.cls-45,.cls-51,.cls-60,.cls-7{fill:#34479a;}.cls-10,.cls-11,.cls-12,.cls-13,.cls-14,.cls-15,.cls-16,.cls-17,.cls-18,.cls-19,.cls-20,.cls-21,.cls-22,.cls-23,.cls-24,.cls-25,.cls-26,.cls-27,.cls-28,.cls-29,.cls-30,.cls-31,.cls-32,.cls-33,.cls-34,.cls-35,.cls-36,.cls-37,.cls-38,.cls-39,.cls-40,.cls-41,.cls-42,.cls-43,.cls-44,.cls-45,.cls-46,.cls-47,.cls-48,.cls-49,.cls-50,.cls-51,.cls-52,.cls-53,.cls-54,.cls-55,.cls-56,.cls-57,.cls-58,.cls-59,.cls-60,.cls-61,.cls-62,.cls-63,.cls-64,.cls-65,.cls-7,.cls-8,.cls-9{font-family:Helvetica-Bold, Helvetica;font-weight:700;}.cls-8{font-size:0.5px;}.cls-12,.cls-14,.cls-22,.cls-24,.cls-29,.cls-30,.cls-33,.cls-39,.cls-41,.cls-47,.cls-52,.cls-54,.cls-57,.cls-62,.cls-63,.cls-8{fill:#fab118;}.cls-9{font-size:4.87px;}.cls-11,.cls-16,.cls-19,.cls-23,.cls-25,.cls-26,.cls-32,.cls-36,.cls-40,.cls-44,.cls-48,.cls-50,.cls-53,.cls-56,.cls-61,.cls-65,.cls-9{fill:#ca2128;}.cls-10{font-size:8.36px;}.cls-10,.cls-13,.cls-15,.cls-18,.cls-20,.cls-21,.cls-27,.cls-31,.cls-34,.cls-37,.cls-43,.cls-46,.cls-49,.cls-55,.cls-58,.cls-59,.cls-64{fill:#098141;}.cls-11{font-size:0.35px;}.cls-12{font-size:0.69px;}.cls-13{font-size:0.7px;}.cls-14{font-size:0.23px;}.cls-15{font-size:0.83px;}.cls-16{font-size:3.8px;}.cls-17{font-size:4.26px;}.cls-18{font-size:8.96px;}.cls-19{font-size:23.87px;}.cls-20{font-size:58.11px;}.cls-21{font-size:2.49px;}.cls-22{font-size:3.84px;}.cls-23{font-size:18.17px;}.cls-24{font-size:2.33px;}.cls-25{font-size:46.31px;}.cls-26,.cls-27{font-size:1.04px;}.cls-28{font-size:1.68px;}.cls-29{font-size:7.18px;}.cls-30{font-size:3.25px;}.cls-31{font-size:3.32px;}.cls-32{font-size:5.53px;}.cls-33{font-size:0.87px;}.cls-34{font-size:0.88px;}.cls-35{font-size:3.27px;}.cls-36{font-size:15.83px;}.cls-37{font-size:0.82px;}.cls-38{font-size:1.93px;}.cls-39{font-size:1.95px;}.cls-40{font-size:14.94px;}.cls-41{font-size:0.59px;}.cls-42{font-size:1.52px;}.cls-43{font-size:2.54px;}.cls-44{font-size:11.24px;}.cls-45{font-size:0.26px;}.cls-46{font-size:0.9px;}.cls-47{font-size:3.35px;}.cls-48{font-size:5.31px;}.cls-49{font-size:0.45px;}.cls-50{font-size:1.26px;}.cls-51{font-size:2.79px;}.cls-52{font-size:8.39px;}.cls-53,.cls-64{font-size:3.29px;}.cls-54{font-size:3.22px;}.cls-55,.cls-65{font-size:14.22px;}.cls-56{font-size:2.93px;}.cls-57{font-size:2.87px;}.cls-58{font-size:22.69px;}.cls-59{font-size:0.4px;}.cls-60{font-size:0.76px;}.cls-61{font-size:1.16px;}.cls-62{font-size:3.01px;}.cls-63{font-size:0.08px;}.cls-66{font-size:6px;}.cls-67{font-size:7px;}.cls-68{font-size:7.8px;}.cls-69{letter-spacing:-0.01em;}.cls-70{fill:#090505;}</style></defs><text class="cls-1" transform="translate(33.67 66.28)">E-<tspan class="cls-2" x="5.05" y="0">v</tspan><tspan x="7.9" y="0">alue</tspan><tspan class="cls-3" x="19.14" y="0">=1.6 × 10</tspan></text><text class="cls-4" transform="translate(78 64.12) scale(0.58)">-13</text><line class="cls-5" x1="34.2" y1="4.43" x2="77.01" y2="4.43"/><path d="M79,11.72,78,9.92l.06,0L81,11l3.07.68L81,12.39,78,13.56l-.06,0Z" transform="translate(-2.93 -7.29)"/><polyline class="cls-6" points="9.83 49.98 11.29 49.98 11.29 10.57"/><line class="cls-5" x1="9.83" y1="49.98" x2="11.29" y2="49.98"/><line class="cls-5" x1="9.83" y1="30.28" x2="11.29" y2="30.28"/><line class="cls-5" x1="9.83" y1="10.57" x2="11.29" y2="10.57"/><text class="cls-7" transform="translate(11.06 49.96) scale(26.48 1)">C</text><text class="cls-8" transform="translate(11.1 49.37) scale(24.17 1)">G</text><text class="cls-9" transform="translate(11.24 48.79) scale(2.44 1)">A</text><text class="cls-10" transform="translate(11.54 45.3) scale(1.61 1)">T</text><text class="cls-11" transform="translate(18.16 49.72) scale(34.33 1)">A</text><text class="cls-12" transform="translate(18.02 49.29) scale(17.66 1)">G</text><text class="cls-13" transform="translate(18.47 48.57) scale(19.18 1)">T</text><text class="cls-14" transform="translate(25 49.97) scale(53.08 1)">G</text><text class="cls-15" transform="translate(25.45 49.57) scale(16.22 1)">T</text><text class="cls-16" transform="translate(25.15 48.79) scale(3.12 1)">A</text><text class="cls-17" transform="translate(24.97 45.94) scale(3.07 1)">C</text><text class="cls-18" transform="translate(32.38 49.48) scale(1.5 1)">T</text><text class="cls-19" transform="translate(32.07 43.24) scale(0.5 1)">A</text><text class="cls-20" transform="translate(39.3 50.21) scale(0.23 1)">T</text><text class="cls-21" transform="translate(46.28 49.97) scale(5.39 1)">T</text><text class="cls-22" transform="translate(45.83 48.03) scale(3.15 1)">G</text><text class="cls-23" transform="translate(45.97 45.16) scale(0.65 1)">A</text><text class="cls-24" transform="translate(52.76 49.95) scale(5.18 1)">G</text><text class="cls-25" transform="translate(52.9 48.38) scale(0.26 1)">A</text><text class="cls-26" transform="translate(59.83 49.97) scale(11.46 1)">A</text><text class="cls-27" transform="translate(60.14 49.02) scale(12.96 1)">T</text><text class="cls-28" transform="translate(59.65 48.11) scale(7.78 1)">C</text><text class="cls-29" transform="translate(59.69 46.65) scale(1.68 1)">G</text><text class="cls-30" transform="translate(66.67 49.94) scale(3.72 1)">G</text><text class="cls-31" transform="translate(67.12 47.52) scale(4.05 1)">T</text><text class="cls-32" transform="translate(66.8 45.02) scale(2.15 1)">A</text><text class="cls-33" transform="translate(73.6 49.96) scale(13.97 1)">G</text><text class="cls-34" transform="translate(74.04 49.17) scale(15.2 1)">T</text><text class="cls-35" transform="translate(73.56 48.27) scale(4 1)">C</text><text class="cls-36" transform="translate(73.73 45.79) scale(0.75 1)">A</text><text class="cls-37" transform="translate(81.03 49.97) scale(16.47 1)">T</text><text class="cls-38" transform="translate(80.54 49.18) scale(6.78 1)">C</text><text class="cls-39" transform="translate(80.57 47.59) scale(6.2 1)">G</text><text class="cls-40" transform="translate(80.71 46.01) scale(0.8 1)">A</text><text class="cls-41" transform="translate(87.5 49.96) scale(20.42 1)">G</text><text class="cls-42" transform="translate(87.46 49.29) scale(8.6 1)">C</text><text class="cls-43" transform="translate(87.95 48.04) scale(5.29 1)">T</text><text class="cls-44" transform="translate(87.64 46.07) scale(1.06 1)">A</text><text class="cls-45" transform="translate(94.39 49.96) scale(50.51 1)">C</text><text class="cls-46" transform="translate(94.87 49.58) scale(14.95 1)">T</text><text class="cls-47" transform="translate(94.43 48.68) scale(3.61 1)">G</text><text class="cls-48" transform="translate(94.56 46.19) scale(2.24 1)">A</text><text class="cls-49" transform="translate(101.86 49.97) scale(29.88 1)">T</text><text class="cls-50" transform="translate(101.55 49.46) scale(9.42 1)">A</text><text class="cls-51" transform="translate(101.37 48.29) scale(4.69 1)">C</text><text class="cls-52" transform="translate(101.41 46.12) scale(1.44 1)">G</text><text class="cls-20" transform="translate(108.78 49.97) scale(0.23 1)">T</text><text class="cls-53" transform="translate(115.4 49.97) scale(3.62 1)">A</text><text class="cls-54" transform="translate(115.25 47.49) scale(3.76 1)">G</text><text class="cls-55" transform="translate(115.71 45.05) scale(0.94 1)">T</text><text class="cls-24" transform="translate(122.24 49.95) scale(5.18 1)">G</text><text class="cls-25" transform="translate(122.38 48.38) scale(0.26 1)">A</text><text class="cls-56" transform="translate(129.3 49.97) scale(4.05 1)">A</text><text class="cls-57" transform="translate(129.16 47.74) scale(4.21 1)">G</text><text class="cls-58" transform="translate(129.61 45.54) scale(0.59 1)">T</text><text class="cls-59" transform="translate(136.54 49.97) scale(33.54 1)">T</text><text class="cls-60" transform="translate(136.06 49.46) scale(17.29 1)">C</text><text class="cls-61" transform="translate(136.23 48.68) scale(10.21 1)">A</text><text class="cls-62" transform="translate(136.09 47.66) scale(4.02 1)">G</text><text class="cls-63" transform="translate(143.07 49.36)">G</text><text class="cls-54" transform="translate(150 49.94) scale(3.76 1)">G</text><text class="cls-64" transform="translate(150.45 47.51) scale(4.09 1)">T</text><text class="cls-65" transform="translate(150.13 45.05) scale(0.84 1)">A</text><text class="cls-66" transform="translate(17.82 54.76) rotate(-90)">1</text><text class="cls-66" transform="translate(24.73 54.76) rotate(-90)">2</text><text class="cls-66" transform="translate(31.63 54.76) rotate(-90)">3</text><text class="cls-66" transform="translate(38.36 54.76) rotate(-90)">4</text><text class="cls-66" transform="translate(46.14 54.76) rotate(-90)">5</text><text class="cls-66" transform="translate(52.52 54.76) rotate(-90)">6</text><text class="cls-66" transform="translate(59.08 54.76) rotate(-90)">7</text><text class="cls-66" transform="translate(65.99 54.76) rotate(-90)">8</text><text class="cls-66" transform="translate(72.54 54.76) rotate(-90)">9</text><text class="cls-66" transform="translate(79.97 56.89) rotate(-90)">10</text><text class="cls-66" transform="translate(86.87 56.89) rotate(-90)">11</text><text class="cls-66" transform="translate(93.78 56.89) rotate(-90)">12</text><text class="cls-66" transform="translate(101.38 56.89) rotate(-90)">13</text><text class="cls-66" transform="translate(107.59 56.89) rotate(-90)">14</text><text class="cls-66" transform="translate(114.67 56.89) rotate(-90)">15</text><text class="cls-66" transform="translate(120.88 56.89) rotate(-90)">16</text><text class="cls-66" transform="translate(128.31 56.89) rotate(-90)">17</text><text class="cls-66" transform="translate(135.22 56.89) rotate(-90)">18</text><text class="cls-66" transform="translate(142.12 56.89) rotate(-90)">19</text><text class="cls-66" transform="translate(148.86 56.89) rotate(-90)">20</text><text class="cls-66" transform="translate(155.93 56.89) rotate(-90)">21</text><text class="cls-67" transform="translate(5.8 50.9)">0</text><text class="cls-67" transform="translate(6.48 31.27)">1</text><text class="cls-67" transform="translate(4.8 11.7)">2</text><text class="cls-67" transform="translate(5.86 32.56) rotate(-90)">Bits</text><line class="cls-5" x1="133.91" y1="4.51" x2="91.1" y2="4.51"/><path d="M94.93,11.8,96,13.6l-.06,0L93,12.48,90,11.8,93,11.13,96,10,96,10Z" transform="translate(-2.93 -7.29)"/><text class="cls-68" transform="translate(10.71 67.2)"><tspan class="cls-69">y</tspan><tspan x="3.38" y="0">dcI</tspan></text><path class="cls-70" d="M87.6,11.8a1.07,1.07,0,1,0-1.07,1.06A1.06,1.06,0,0,0,87.6,11.8Z" transform="translate(-2.93 -7.29)"/></svg>