<svg id="Layer_1" data-name="Layer 1" xmlns="http://www.w3.org/2000/svg" width="2.57in" height="1.2in" viewBox="0 0 185 86.3"><defs><style>.cls-1{fill:none;stroke:#000;stroke-miterlimit:10;}.cls-2,.cls-57,.cls-59{font-size:8px;}.cls-2,.cls-3,.cls-57{fill:#231f20;}.cls-2,.cls-58{font-family:ArialMT, Arial;}.cls-3{font-size:3.93px;}.cls-10,.cls-11,.cls-12,.cls-13,.cls-14,.cls-15,.cls-16,.cls-17,.cls-18,.cls-19,.cls-22,.cls-23,.cls-24,.cls-25,.cls-26,.cls-27,.cls-28,.cls-3,.cls-30,.cls-31,.cls-32,.cls-33,.cls-34,.cls-35,.cls-36,.cls-37,.cls-38,.cls-39,.cls-4,.cls-41,.cls-43,.cls-44,.cls-45,.cls-46,.cls-47,.cls-48,.cls-49,.cls-5,.cls-50,.cls-51,.cls-52,.cls-53,.cls-54,.cls-55,.cls-56,.cls-6,.cls-7,.cls-8,.cls-9{font-family:Helvetica-Bold, Helvetica;font-weight:700;}.cls-4{font-size:0.56px;}.cls-11,.cls-13,.cls-17,.cls-21,.cls-37,.cls-4,.cls-42,.cls-43,.cls-51,.cls-55{fill:#fcb316;}.cls-5{font-size:1.28px;}.cls-12,.cls-15,.cls-18,.cls-24,.cls-29,.cls-30,.cls-34,.cls-38,.cls-41,.cls-48,.cls-49,.cls-5,.cls-56,.cls-8{fill:#cb2026;}.cls-6{font-size:3.05px;}.cls-14,.cls-19,.cls-23,.cls-26,.cls-28,.cls-31,.cls-32,.cls-36,.cls-39,.cls-44,.cls-47,.cls-50,.cls-54,.cls-6,.cls-9{fill:#0c8140;}.cls-7{font-size:6.72px;}.cls-10,.cls-16,.cls-20,.cls-22,.cls-25,.cls-27,.cls-33,.cls-35,.cls-40,.cls-45,.cls-46,.cls-52,.cls-53,.cls-7{fill:#35459c;}.cls-8{font-size:0.31px;}.cls-9{font-size:1.1px;}.cls-10{font-size:6.46px;}.cls-11{font-size:20.55px;}.cls-12{font-size:1.19px;}.cls-13{font-size:1.33px;}.cls-14{font-size:2.03px;}.cls-15{font-size:3.09px;}.cls-16{font-size:2.99px;}.cls-17{font-size:7.3px;}.cls-18{font-size:0.8px;}.cls-19{font-size:5.96px;}.cls-20{font-size:40.74px;}.cls-20,.cls-21,.cls-29,.cls-40,.cls-42{font-family:MyriadPro-Regular, Myriad Pro;}.cls-21{font-size:76.48px;}.cls-22{font-size:14.73px;}.cls-23{font-size:24.62px;}.cls-24{font-size:3.35px;}.cls-25{font-size:3.24px;}.cls-26{font-size:12.66px;}.cls-27{font-size:0.93px;}.cls-28{font-size:3.86px;}.cls-29{font-size:50.26px;}.cls-30{font-size:12.92px;}.cls-31{font-size:29.68px;}.cls-32{font-size:2.97px;}.cls-33{font-size:3.99px;}.cls-34{font-size:36.39px;}.cls-35{font-size:0.73px;}.cls-36{font-size:0.75px;}.cls-37{font-size:6.19px;}.cls-38{font-size:14.36px;}.cls-39{font-size:2.95px;}.cls-40{font-size:61.17px;}.cls-41{font-size:6.8px;}.cls-42{font-size:48.08px;}.cls-43{font-size:1.79px;}.cls-44{font-size:2.34px;}.cls-45{font-size:3.75px;}.cls-46{font-size:4.42px;}.cls-47{font-size:4.99px;}.cls-48{font-size:5.41px;}.cls-49{font-size:0.12px;}.cls-50{font-size:2.56px;}.cls-51{font-size:4.3px;}.cls-52{font-size:14.27px;}.cls-53{font-size:0.13px;}.cls-54{font-size:0.76px;}.cls-55{font-size:9.87px;}.cls-56{font-size:11.32px;}.cls-57,.cls-59{font-family:Arial-ItalicMT, Arial;font-style:italic;}.cls-58{font-style:normal;}.cls-60{letter-spacing:-0.01em;}.cls-61{fill:#090505;}</style></defs><polyline class="cls-1" points="11.87 64.57 13.83 64.57 13.83 11.63"/><text class="cls-2" transform="translate(7.68 66.89)">0</text><line class="cls-1" x1="11.87" y1="64.57" x2="13.83" y2="64.57"/><text class="cls-2" transform="translate(7.68 40.38)">1</text><line class="cls-1" x1="11.87" y1="38.1" x2="13.83" y2="38.1"/><text class="cls-2" transform="translate(7.68 13.93)">2</text><line class="cls-1" x1="11.87" y1="11.63" x2="13.83" y2="11.63"/><text class="cls-2" transform="translate(6.87 42.11) rotate(-90)">bits</text><text class="cls-3" transform="translate(20.31 66.92) rotate(-90)">1</text><text class="cls-4" transform="translate(13.57 64.55) scale(28.9 1)">G</text><text class="cls-5" transform="translate(13.76 63.83) scale(12.46 1)">A</text><text class="cls-6" transform="translate(14.18 62.7) scale(5.92 1)">T</text><text class="cls-7" transform="translate(13.53 60.22) scale(2.62 1)">C</text><text class="cls-3" transform="translate(29.65 66.92) rotate(-90)">2</text><text class="cls-8" transform="translate(23.08 64.55) scale(51.71 1)">A</text><text class="cls-9" transform="translate(23.49 64.03) scale(16.37 1)">T</text><text class="cls-10" transform="translate(22.84 62.92) scale(2.73 1)">C</text><text class="cls-11" transform="translate(22.89 58) scale(0.79 1)">G</text><text class="cls-3" transform="translate(38.99 66.92) rotate(-90)">3</text><text class="cls-12" transform="translate(32.47 64.26) scale(13.4 1)">A</text><text class="cls-13" transform="translate(32.28 63.09) scale(12.21 1)">G</text><text class="cls-14" transform="translate(32.89 61.87) scale(8.89 1)">T</text><text class="cls-3" transform="translate(48.33 66.92) rotate(-90)">4</text><text class="cls-15" transform="translate(41.79 64.33) scale(5.18 1)">A</text><text class="cls-16" transform="translate(41.56 61.84) scale(5.89 1)">C</text><text class="cls-17" transform="translate(41.6 59.45) scale(2.23 1)">G</text><text class="cls-3" transform="translate(57.66 66.92) rotate(-90)">5</text><text class="cls-18" transform="translate(51.11 64.55) scale(19.89 1)">A</text><text class="cls-19" transform="translate(51.52 63.68) scale(3.03 1)">T</text><text class="cls-20" transform="translate(50.87 58.94) scale(0.43 1)">C</text><text class="cls-3" transform="translate(67 66.92) rotate(-90)">6</text><text class="cls-21" transform="translate(60.24 64.01) scale(0.21 1)">G</text><text class="cls-3" transform="translate(76.34 66.92) rotate(-90)">7</text><text class="cls-22" transform="translate(69.58 64.39) scale(1.2 1)">C</text><text class="cls-23" transform="translate(70.24 54.01) scale(0.73 1)">T</text><text class="cls-3" transform="translate(85.68 66.92) rotate(-90)">8</text><text class="cls-24" transform="translate(79.13 64.2) scale(4.77 1)">A</text><text class="cls-25" transform="translate(78.9 61.6) scale(5.43 1)">C</text><text class="cls-26" transform="translate(79.55 59.06) scale(1.43 1)">T</text><text class="cls-3" transform="translate(95.01 66.92) rotate(-90)">9</text><text class="cls-27" transform="translate(88.22 64.54) scale(18.86 1)">C</text><text class="cls-28" transform="translate(88.87 63.62) scale(4.67 1)">T</text><text class="cls-29" transform="translate(88.45 60.66) scale(0.32 1)">A</text><text class="cls-3" transform="translate(104.35 68.93) rotate(-90)">10</text><text class="cls-30" transform="translate(97.77 64.55) scale(1.24 1)">A</text><text class="cls-31" transform="translate(98.19 55.52) scale(0.61 1)">T</text><text class="cls-3" transform="translate(113.69 68.93) rotate(-90)">11</text><text class="cls-32" transform="translate(107.58 64.55) scale(6.08 1)">T</text><text class="cls-33" transform="translate(106.93 62.2) scale(4.41 1)">C</text><text class="cls-34" transform="translate(107.16 59.1) scale(0.44 1)">A</text><text class="cls-3" transform="translate(123.03 68.93) rotate(-90)">12</text><text class="cls-35" transform="translate(116.25 64.54) scale(24.17 1)">C</text><text class="cls-36" transform="translate(116.9 63.75) scale(24.03 1)">T</text><text class="cls-37" transform="translate(116.29 62.9) scale(2.63 1)">G</text><text class="cls-38" transform="translate(116.48 58.33) scale(1.11 1)">A</text><text class="cls-3" transform="translate(132.36 68.93) rotate(-90)">13</text><text class="cls-39" transform="translate(126.21 64.55) scale(6.11 1)">T</text><text class="cls-40" transform="translate(125.56 61.6) scale(0.29 1)">C</text><text class="cls-3" transform="translate(141.7 68.93) rotate(-90)">14</text><text class="cls-41" transform="translate(135.11 64.55) scale(2.35 1)">A</text><text class="cls-42" transform="translate(134.93 59.34) scale(0.34 1)">G</text><text class="cls-3" transform="translate(151.04 68.93) rotate(-90)">15</text><text class="cls-43" transform="translate(144.32 64.24) scale(9.1 1)">G</text><text class="cls-44" transform="translate(144.92 62.63) scale(7.73 1)">T</text><text class="cls-45" transform="translate(144.27 60.75) scale(4.69 1)">C</text><text class="cls-3" transform="translate(160.38 68.93) rotate(-90)">16</text><text class="cls-46" transform="translate(153.59 64.5) scale(3.98 1)">C</text><text class="cls-47" transform="translate(154.24 61.2) scale(3.62 1)">T</text><text class="cls-48" transform="translate(153.82 57.44) scale(2.96 1)">A</text><text class="cls-3" transform="translate(169.72 68.93) rotate(-90)">17</text><text class="cls-49" transform="translate(163.14 64.55)">A</text><text class="cls-50" transform="translate(163.56 64.2) scale(7.06 1)">T</text><text class="cls-51" transform="translate(162.96 62.11) scale(3.79 1)">G</text><text class="cls-52" transform="translate(162.91 58.65) scale(1.23 1)">C</text><text class="cls-3" transform="translate(179.05 68.93) rotate(-90)">18</text><text class="cls-53" transform="translate(172.31 64.55)">C</text><text class="cls-54" transform="translate(172.95 64.18) scale(23.87 1)">T</text><text class="cls-55" transform="translate(172.35 63.23) scale(1.65 1)">G</text><text class="cls-56" transform="translate(172.54 56.21) scale(1.41 1)">A</text><text class="cls-57" transform="translate(49.61 82.44)">E-value<tspan class="cls-58" x="27.13" y="0">=5.0 × 10</tspan></text><text class="cls-2" transform="translate(110.55 79.78) scale(0.58)">-71</text><text class="cls-59" transform="translate(26.65 82.08)"><tspan class="cls-60">y</tspan><tspan x="3.94" y="0">dcN</tspan></text><line class="cls-1" x1="173.44" y1="8.64" x2="107.18" y2="8.64"/><path d="M111.36,8.57l1.1,1.8-.07.05-2.93-1.17-3.07-.68,3.07-.67,2.93-1.17.07,0Z" transform="translate(-3.28 0.07)"/><path class="cls-61" d="M101.75,8.57a1.06,1.06,0,1,0-1.06,1.07A1.06,1.06,0,0,0,101.75,8.57Z" transform="translate(-3.28 0.07)"/><line class="cls-1" x1="21.57" y1="8.64" x2="87.82" y2="8.64"/><path d="M90.2,8.57l-1.09-1.8.06,0L92.11,7.9l3.07.67-3.07.68-2.94,1.17-.06,0Z" transform="translate(-3.28 0.07)"/></svg>