<svg id="Layer_1" data-name="Layer 1" xmlns="http://www.w3.org/2000/svg" width="1.66in" height="1.33in" viewBox="0 0 119.65 95.69"><defs><style>.cls-1{fill:none;stroke:#000;stroke-miterlimit:10;}.cls-2{font-size:3.84px;}.cls-2,.cls-20{fill:#231f20;}.cls-10,.cls-11,.cls-12,.cls-13,.cls-14,.cls-15,.cls-16,.cls-17,.cls-18,.cls-19,.cls-2,.cls-3,.cls-4,.cls-5,.cls-6,.cls-7,.cls-8,.cls-9{font-family:Helvetica-Bold, Helvetica;font-weight:700;}.cls-3{font-size:2.4px;}.cls-11,.cls-13,.cls-17,.cls-18,.cls-3,.cls-6,.cls-7{fill:#cb2026;}.cls-4{font-size:6.35px;}.cls-10,.cls-15,.cls-19,.cls-4{fill:#fcb316;}.cls-5{font-size:11.81px;}.cls-14,.cls-16,.cls-5,.cls-9{fill:#36459c;}.cls-6{font-size:71.37px;}.cls-7{font-size:6.09px;}.cls-8{font-size:45.31px;}.cls-12,.cls-8{fill:#0f8140;}.cls-9{font-size:1.46px;}.cls-10{font-size:7.09px;}.cls-11{font-size:21.24px;}.cls-12{font-size:8.33px;}.cls-13{font-size:37.59px;}.cls-14{font-size:68.24px;}.cls-15{font-size:2.93px;}.cls-16{font-size:5.18px;}.cls-17{font-size:8.94px;}.cls-18{font-size:3.29px;}.cls-19{font-size:52.88px;}.cls-20,.cls-21,.cls-23{font-size:10px;}.cls-20,.cls-21{font-family:ArialMT, Arial;}.cls-22,.cls-23{letter-spacing:-0.01em;}.cls-23{font-family:Arial-ItalicMT, Arial;font-style:italic;}</style></defs><polyline class="cls-1" points="15.02 61.39 16.94 61.39 16.94 9.69"/><line class="cls-1" x1="15.02" y1="61.39" x2="16.94" y2="61.39"/><line class="cls-1" x1="15.02" y1="35.54" x2="16.94" y2="35.54"/><line class="cls-1" x1="15.02" y1="9.69" x2="16.94" y2="9.69"/><text class="cls-2" transform="translate(23.42 63.84) rotate(-90)">1</text><text class="cls-3" transform="translate(16.93 61.37) scale(5.43 1)">A</text><text class="cls-4" transform="translate(16.71 59.23) scale(2.09 1)">G</text><text class="cls-5" transform="translate(16.63 54.02) scale(1.19 1)">C</text><text class="cls-2" transform="translate(32.6 63.84) rotate(-90)">2</text><text class="cls-6" transform="translate(26.07 61.37) scale(0.18 1)">A</text><text class="cls-2" transform="translate(41.77 63.84) rotate(-90)">3</text><text class="cls-7" transform="translate(35.28 61.37) scale(2.14 1)">A</text><text class="cls-8" transform="translate(35.36 56.72) scale(0.34 1)">T</text><text class="cls-2" transform="translate(50.95 63.84) rotate(-90)">4</text><text class="cls-9" transform="translate(44.13 61.34) scale(9.6 1)">C</text><text class="cls-10" transform="translate(44.21 59.86) scale(1.87 1)">G</text><text class="cls-11" transform="translate(44.43 54.31) scale(0.61 1)">A</text><text class="cls-2" transform="translate(60.13 63.84) rotate(-90)">5</text><text class="cls-12" transform="translate(53.73 61.37) scale(1.82 1)">T</text><text class="cls-13" transform="translate(53.64 55.1) scale(0.35 1)">A</text><text class="cls-2" transform="translate(69.31 63.84) rotate(-90)">6</text><text class="cls-14" transform="translate(62.49 60) scale(0.21 1)">C</text><text class="cls-2" transform="translate(78.49 63.84) rotate(-90)">7</text><text class="cls-15" transform="translate(71.78 61.31) scale(4.52 1)">G</text><text class="cls-16" transform="translate(71.71 58.73) scale(2.7 1)">C</text><text class="cls-17" transform="translate(72 54.61) scale(1.46 1)">A</text><text class="cls-2" transform="translate(87.67 63.84) rotate(-90)">8</text><text class="cls-18" transform="translate(81.14 61.37) scale(3.96 1)">A</text><text class="cls-19" transform="translate(80.93 57.73) scale(0.25 1)">G</text><text class="cls-20" transform="translate(9.4 64.42)">0</text><text class="cls-20" transform="translate(9.4 37.91)">1</text><text class="cls-20" transform="translate(9.4 11.46)">2</text><text class="cls-20" transform="translate(8.58 39.64) rotate(-90)">bits</text><text class="cls-21" transform="translate(16.94 75.56)"><tspan class="cls-22">Y</tspan><tspan x="6.59" y="0">dcR</tspan></text><text class="cls-23" transform="translate(57.45 75.56)">Nonsignificant</text></svg>