<svg id="Layer_1" data-name="Layer 1" xmlns="http://www.w3.org/2000/svg" width="2.41in" height="1.25in" viewBox="0 0 173.47 89.71"><defs><style>.cls-1,.cls-3,.cls-31{font-size:10px;}.cls-1,.cls-3{font-family:ArialMT, Arial;}.cls-2,.cls-31{letter-spacing:-0.01em;}.cls-3,.cls-5{fill:#231f20;}.cls-4{fill:none;stroke:#000;stroke-miterlimit:10;}.cls-5{font-size:3.6px;}.cls-10,.cls-11,.cls-12,.cls-13,.cls-14,.cls-15,.cls-16,.cls-17,.cls-18,.cls-19,.cls-20,.cls-21,.cls-22,.cls-23,.cls-24,.cls-25,.cls-26,.cls-27,.cls-28,.cls-29,.cls-30,.cls-5,.cls-6,.cls-7,.cls-8,.cls-9{font-family:Helvetica-Bold, Helvetica;font-weight:700;}.cls-6{font-size:12.8px;}.cls-10,.cls-14,.cls-18,.cls-24,.cls-30,.cls-6{fill:#fcb316;}.cls-13,.cls-7{font-size:20.37px;}.cls-11,.cls-12,.cls-19,.cls-22,.cls-28,.cls-7,.cls-8{fill:#0f8140;}.cls-8{font-size:66.91px;}.cls-9{font-size:3.65px;}.cls-17,.cls-21,.cls-23,.cls-26,.cls-27,.cls-9{fill:#36459c;}.cls-10{font-size:3.64px;}.cls-11{font-size:12.29px;}.cls-12{font-size:13.44px;}.cls-13,.cls-15,.cls-16,.cls-20,.cls-25,.cls-29{fill:#cb2026;}.cls-14{font-size:7.8px;}.cls-15,.cls-19{font-size:34px;}.cls-16{font-size:3.82px;}.cls-17{font-size:3.65px;}.cls-18{font-size:19.4px;}.cls-20{font-size:8.19px;}.cls-21{font-size:32.51px;}.cls-22{font-size:3.82px;}.cls-23{font-size:11.75px;}.cls-24{font-size:2.67px;}.cls-25{font-size:6.02px;}.cls-26{font-size:5.76px;}.cls-27{font-size:63.97px;}.cls-28{font-size:2.8px;}.cls-29{font-size:6.02px;}.cls-30{font-size:63.72px;}.cls-31{font-family:Arial-ItalicMT, Arial;font-style:italic;}</style></defs><text class="cls-1" transform="translate(18.73 72.13)"><tspan class="cls-2">Y</tspan><tspan x="6.59" y="0">diP</tspan></text><text class="cls-3" transform="translate(10.23 11.23)">2</text><polyline class="cls-4" points="16.93 57.55 18.73 57.55 18.73 9.08"/><line class="cls-4" x1="16.93" y1="57.55" x2="18.73" y2="57.55"/><line class="cls-4" x1="16.93" y1="33.32" x2="18.73" y2="33.32"/><line class="cls-4" x1="16.93" y1="9.08" x2="18.73" y2="9.08"/><text class="cls-5" transform="translate(24.77 59.85) rotate(-90)">1</text><text class="cls-6" transform="translate(18.51 57.3) scale(0.96 1)">G</text><text class="cls-7" transform="translate(18.79 47.59) scale(0.69 1)">T</text><text class="cls-5" transform="translate(33.32 59.85) rotate(-90)">2</text><text class="cls-6" transform="translate(27.04 57.3) scale(0.96 1)">G</text><text class="cls-7" transform="translate(27.32 47.59) scale(0.69 1)">T</text><text class="cls-5" transform="translate(41.87 59.85) rotate(-90)">3</text><text class="cls-8" transform="translate(35.92 57.53) scale(0.21 1)">T</text><text class="cls-5" transform="translate(50.42 59.85) rotate(-90)">4</text><text class="cls-9" transform="translate(44.11 57.46) scale(3.57 1)">C</text><text class="cls-10" transform="translate(44.18 54.46) scale(3.39 1)">G</text><text class="cls-11" transform="translate(44.45 51.45) scale(1.15 1)">T</text><text class="cls-5" transform="translate(58.97 59.85) rotate(-90)">5</text><text class="cls-12" transform="translate(52.98 57.53) scale(1.05 1)">T</text><text class="cls-13" transform="translate(52.91 47.59) scale(0.6 1)">A</text><text class="cls-5" transform="translate(67.52 59.85) rotate(-90)">6</text><text class="cls-14" transform="translate(61.24 57.39) scale(1.58 1)">G</text><text class="cls-15" transform="translate(61.44 51.34) scale(0.36 1)">A</text><text class="cls-5" transform="translate(76.06 59.85) rotate(-90)">7</text><text class="cls-8" transform="translate(70.11 57.53) scale(0.21 1)">T</text><text class="cls-5" transform="translate(84.61 59.85) rotate(-90)">8</text><text class="cls-16" transform="translate(78.57 57.53) scale(3.18 1)">A</text><text class="cls-17" transform="translate(78.3 54.46) scale(3.57 1)">C</text><text class="cls-11" transform="translate(78.64 51.45) scale(1.15 1)">T</text><text class="cls-5" transform="translate(93.16 59.85) rotate(-90)">9</text><text class="cls-9" transform="translate(86.83 57.46) scale(3.57 1)">C</text><text class="cls-10" transform="translate(86.9 54.46) scale(3.39 1)">G</text><text class="cls-11" transform="translate(87.17 51.45) scale(1.15 1)">T</text><text class="cls-5" transform="translate(101.71 61.85) rotate(-90)">10</text><text class="cls-12" transform="translate(95.7 57.53) scale(1.05 1)">T</text><text class="cls-18" transform="translate(95.43 47.24) scale(0.64 1)">G</text><text class="cls-5" transform="translate(110.26 61.85) rotate(-90)">11</text><text class="cls-14" transform="translate(104.03 57.39) scale(1.58 1)">G</text><text class="cls-19" transform="translate(104.3 51.34) scale(0.42 1)">T</text><text class="cls-5" transform="translate(118.81 61.85) rotate(-90)">12</text><text class="cls-20" transform="translate(112.76 57.53) scale(1.48 1)">A</text><text class="cls-21" transform="translate(112.49 50.68) scale(0.4 1)">C</text><text class="cls-5" transform="translate(127.36 61.85) rotate(-90)">13</text><text class="cls-16" transform="translate(121.29 57.53) scale(3.18 1)">A</text><text class="cls-22" transform="translate(121.36 54.53) scale(3.71 1)">T</text><text class="cls-23" transform="translate(121.02 51.22) scale(1.11 1)">C</text><text class="cls-5" transform="translate(135.91 61.85) rotate(-90)">14</text><text class="cls-24" transform="translate(129.62 57.48) scale(4.62 1)">G</text><text class="cls-25" transform="translate(129.82 55.2) scale(2.01 1)">A</text><text class="cls-26" transform="translate(129.55 50.5) scale(2.27 1)">C</text><text class="cls-5" transform="translate(144.46 61.85) rotate(-90)">15</text><text class="cls-6" transform="translate(138.22 57.3) scale(0.96 1)">G</text><text class="cls-13" transform="translate(138.42 47.59) scale(0.6 1)">A</text><text class="cls-5" transform="translate(153 61.85) rotate(-90)">16</text><text class="cls-27" transform="translate(146.68 56.25) scale(0.2 1)">C</text><text class="cls-5" transform="translate(161.55 61.85) rotate(-90)">17</text><text class="cls-28" transform="translate(155.56 57.53) scale(5.05 1)">T</text><text class="cls-29" transform="translate(155.48 55.2) scale(2.01 1)">A</text><text class="cls-26" transform="translate(155.21 50.5) scale(2.27 1)">C</text><text class="cls-5" transform="translate(170.1 61.85) rotate(-90)">18</text><text class="cls-30" transform="translate(163.88 56.38) scale(0.19 1)">G</text><text class="cls-3" transform="translate(9.49 60)">0</text><text class="cls-3" transform="translate(9.4 34.77)">1</text><text class="cls-3" transform="translate(8.58 36.5) rotate(-90)">bits</text><text class="cls-31" transform="translate(110.26 72.24)">Nonsignificant</text></svg>