<svg id="Layer_1" data-name="Layer 1" xmlns="http://www.w3.org/2000/svg" width="1.78in" height="1.37in" viewBox="0 0 127.86 98.68"><defs><style>.cls-1{fill:none;stroke:#000;stroke-miterlimit:10;}.cls-2{font-size:3.96px;}.cls-15,.cls-2{fill:#231f20;}.cls-10,.cls-11,.cls-12,.cls-13,.cls-14,.cls-2,.cls-3,.cls-4,.cls-5,.cls-6,.cls-7,.cls-8,.cls-9{font-family:Helvetica-Bold, Helvetica;font-weight:700;}.cls-3{font-size:14.06px;}.cls-10,.cls-11,.cls-12,.cls-3{fill:#cb2026;}.cls-4{font-size:22.7px;}.cls-13,.cls-4,.cls-6,.cls-8,.cls-9{fill:#36459c;}.cls-5{font-size:5.98px;}.cls-5,.cls-7{fill:#fcb316;}.cls-6{font-size:44.68px;}.cls-7{font-size:70.09px;}.cls-8{font-size:22.7px;}.cls-9{font-size:10.08px;}.cls-10{font-size:32.55px;}.cls-11{font-size:73.6px;}.cls-12{font-size:73.6px;}.cls-13{font-size:13.44px;}.cls-14{font-size:23.74px;fill:#0f8140;}.cls-15,.cls-16,.cls-18{font-size:10px;}.cls-15,.cls-16{font-family:ArialMT, Arial;}.cls-17,.cls-18{letter-spacing:-0.01em;}.cls-18{font-family:Arial-ItalicMT, Arial;font-style:italic;}</style></defs><polyline class="cls-1" points="16.34 63.31 18.32 63.31 18.32 9.99"/><line class="cls-1" x1="16.34" y1="63.31" x2="18.32" y2="63.31"/><line class="cls-1" x1="16.34" y1="36.65" x2="18.32" y2="36.65"/><line class="cls-1" x1="16.34" y1="9.99" x2="18.32" y2="9.99"/><text class="cls-2" transform="translate(25 65.84) rotate(-90)">1</text><text class="cls-3" transform="translate(18.31 63.28) scale(0.96 1)">A</text><text class="cls-4" transform="translate(18.01 52.38) scale(0.64 1)">C</text><text class="cls-2" transform="translate(34.47 65.84) rotate(-90)">2</text><text class="cls-5" transform="translate(27.51 63.18) scale(2.28 1)">G</text><text class="cls-6" transform="translate(27.43 57.59) scale(0.32 1)">C</text><text class="cls-2" transform="translate(43.93 65.84) rotate(-90)">3</text><text class="cls-7" transform="translate(37.02 62.02) scale(0.19 1)">G</text><text class="cls-2" transform="translate(53.39 65.84) rotate(-90)">4</text><text class="cls-3" transform="translate(46.67 63.28) scale(0.96 1)">A</text><text class="cls-8" transform="translate(46.36 52.38) scale(0.64 1)">C</text><text class="cls-2" transform="translate(62.86 65.84) rotate(-90)">5</text><text class="cls-9" transform="translate(55.87 63.08) scale(1.43 1)">C</text><text class="cls-10" transform="translate(56.17 55.36) scale(0.41 1)">A</text><text class="cls-2" transform="translate(72.33 65.84) rotate(-90)">6</text><text class="cls-11" transform="translate(65.6 63.28) scale(0.18 1)">A</text><text class="cls-2" transform="translate(81.79 65.84) rotate(-90)">7</text><text class="cls-12" transform="translate(75.1 63.28) scale(0.18 1)">A</text><text class="cls-2" transform="translate(91.26 65.84) rotate(-90)">8</text><text class="cls-13" transform="translate(84.23 63.02) scale(1.08 1)">C</text><text class="cls-14" transform="translate(84.61 52.83) scale(0.66 1)">T</text><text class="cls-15" transform="translate(9.49 64.52)">0</text><text class="cls-15" transform="translate(9.4 39.3)">1</text><text class="cls-15" transform="translate(8.99 12)">2</text><text class="cls-15" transform="translate(8.58 41.03) rotate(-90)">bits</text><text class="cls-16" transform="translate(17.33 75.46)"><tspan class="cls-17">Y</tspan><tspan x="6.59" y="0">ebK</tspan></text><text class="cls-18" transform="translate(65.66 75.46)">Nonsignificant</text></svg>