<svg id="Layer_1" data-name="Layer 1" xmlns="http://www.w3.org/2000/svg" width="2.2in" height="1.45in" viewBox="0 0 158.54 104.67"><defs><style>.cls-1{fill:none;stroke:#000;stroke-miterlimit:10;}.cls-2,.cls-45,.cls-47{font-size:8px;}.cls-2,.cls-3,.cls-45{fill:#231f20;}.cls-2,.cls-46{font-family:ArialMT, Arial;}.cls-3{font-size:3.74px;}.cls-10,.cls-11,.cls-12,.cls-13,.cls-14,.cls-15,.cls-16,.cls-17,.cls-18,.cls-19,.cls-20,.cls-21,.cls-22,.cls-23,.cls-24,.cls-25,.cls-26,.cls-27,.cls-28,.cls-29,.cls-3,.cls-30,.cls-31,.cls-32,.cls-33,.cls-34,.cls-35,.cls-36,.cls-37,.cls-38,.cls-39,.cls-4,.cls-40,.cls-41,.cls-42,.cls-43,.cls-44,.cls-5,.cls-6,.cls-7,.cls-8,.cls-9{font-family:Helvetica-Bold, Helvetica;font-weight:700;}.cls-33,.cls-4{font-size:9.11px;}.cls-12,.cls-17,.cls-19,.cls-21,.cls-25,.cls-26,.cls-31,.cls-35,.cls-38,.cls-4,.cls-43{fill:#cb2026;}.cls-5{font-size:41.12px;}.cls-18,.cls-20,.cls-23,.cls-28,.cls-32,.cls-33,.cls-37,.cls-39,.cls-5,.cls-6,.cls-9{fill:#0c8140;}.cls-6{font-size:78.07px;}.cls-7{font-size:1.45px;}.cls-10,.cls-14,.cls-15,.cls-22,.cls-30,.cls-36,.cls-41,.cls-44,.cls-7{fill:#fcb316;}.cls-8{font-size:9.06px;}.cls-11,.cls-13,.cls-16,.cls-24,.cls-27,.cls-29,.cls-34,.cls-40,.cls-42,.cls-8{fill:#35459c;}.cls-9{font-size:19.2px;}.cls-10{font-size:10.96px;}.cls-11{font-size:33.44px;}.cls-12{font-size:0.14px;}.cls-13{font-size:0.44px;}.cls-14{font-size:40.28px;}.cls-15{font-size:2.24px;}.cls-16{font-size:4.91px;}.cls-17{font-size:35.63px;}.cls-18{font-size:11.19px;}.cls-19{font-size:34.53px;}.cls-20{font-size:3.6px;}.cls-21{font-size:60.74px;}.cls-22{font-size:0.13px;}.cls-23{font-size:1.36px;}.cls-24{font-size:2.51px;}.cls-25,.cls-37{font-size:3.83px;}.cls-26{font-size:4.12px;}.cls-27{font-size:3.99px;}.cls-28{font-size:27.17px;}.cls-29{font-size:1.14px;}.cls-30{font-size:1.15px;}.cls-31{font-size:4.49px;}.cls-32{font-size:17.75px;}.cls-34{font-size:39.82px;}.cls-35{font-size:0.13px;}.cls-36{font-size:1.33px;}.cls-38{font-size:0.24px;}.cls-39{font-size:1.7px;}.cls-40{font-size:2.35px;}.cls-41{font-size:5.24px;}.cls-42{font-size:2.54px;}.cls-43{font-size:7.29px;}.cls-44{font-size:13.24px;}.cls-45,.cls-47{font-family:Arial-ItalicMT, Arial;font-style:italic;}.cls-46{font-style:normal;}.cls-48{letter-spacing:-0.01em;}</style></defs><polyline class="cls-1" points="11.71 67.15 13.58 67.15 13.58 14.2"/><text class="cls-2" transform="translate(7.64 69.47) scale(0.95 1)">0</text><line class="cls-1" x1="11.71" y1="67.15" x2="13.58" y2="67.15"/><text class="cls-2" transform="translate(7.64 42.95) scale(0.95 1)">1</text><line class="cls-1" x1="11.71" y1="40.68" x2="13.58" y2="40.68"/><text class="cls-2" transform="translate(7.64 16.5) scale(0.95 1)">2</text><line class="cls-1" x1="11.71" y1="14.2" x2="13.58" y2="14.2"/><text class="cls-2" transform="translate(6.87 44.68) rotate(-90) scale(1.05 1)">bits</text><text class="cls-3" transform="translate(19.74 69.49) rotate(-90) scale(1.05 1)">1</text><text class="cls-4" transform="translate(13.51 67.13) scale(1.67 1)">A</text><text class="cls-5" transform="translate(13.91 60.71) scale(0.42 1)">T</text><text class="cls-3" transform="translate(28.62 69.49) rotate(-90) scale(1.05 1)">2</text><text class="cls-6" transform="translate(22.77 67.13) scale(0.22 1)">T</text><text class="cls-3" transform="translate(37.49 69.49) rotate(-90) scale(1.05 1)">3</text><text class="cls-7" transform="translate(31.06 67.11) scale(10.65 1)">G</text><text class="cls-8" transform="translate(31.02 65.71) scale(1.85 1)">C</text><text class="cls-9" transform="translate(31.64 59.23) scale(0.89 1)">T</text><text class="cls-3" transform="translate(46.37 69.49) rotate(-90) scale(1.05 1)">4</text><text class="cls-10" transform="translate(40 67.05) scale(1.41 1)">G</text><text class="cls-11" transform="translate(39.95 58.89) scale(0.5 1)">C</text><text class="cls-3" transform="translate(55.25 69.49) rotate(-90) scale(1.05 1)">5</text><text class="cls-12" transform="translate(49.04 66.49) scale(0.95 1)">A</text><text class="cls-13" transform="translate(48.82 66.11) scale(38.18 1)">C</text><text class="cls-3" transform="translate(64.13 69.49) rotate(-90) scale(1.05 1)">6</text><text class="cls-4" transform="translate(57.9 67.13) scale(1.67 1)">A</text><text class="cls-14" transform="translate(57.72 60.43) scale(0.38 1)">G</text><text class="cls-3" transform="translate(73 69.49) rotate(-90) scale(1.05 1)">7</text><text class="cls-15" transform="translate(66.59 67.11) scale(6.89 1)">G</text><text class="cls-16" transform="translate(66.54 65.21) scale(3.41 1)">C</text><text class="cls-17" transform="translate(66.76 61.55) scale(0.43 1)">A</text><text class="cls-3" transform="translate(81.88 69.49) rotate(-90) scale(1.05 1)">8</text><text class="cls-18" transform="translate(76.02 67.12) scale(1.53 1)">T</text><text class="cls-19" transform="translate(75.63 59.25) scale(0.44 1)">A</text><text class="cls-3" transform="translate(90.75 69.49) rotate(-90) scale(1.05 1)">9</text><text class="cls-20" transform="translate(84.96 67.13) scale(4.77 1)">T</text><text class="cls-21" transform="translate(84.56 64.37) scale(0.25 1)">A</text><text class="cls-3" transform="translate(99.63 71.51) rotate(-90) scale(1.05 1)">10</text><text class="cls-22" transform="translate(93.25 67.12) scale(0.95 1)">G</text><text class="cls-23" transform="translate(93.82 66.77) scale(12.6 1)">T</text><text class="cls-24" transform="translate(93.2 65.43) scale(6.66 1)">C</text><text class="cls-25" transform="translate(93.43 63.42) scale(3.97 1)">A</text><text class="cls-3" transform="translate(108.51 71.51) rotate(-90) scale(1.05 1)">11</text><text class="cls-26" transform="translate(102.29 67.13) scale(3.68 1)">A</text><text class="cls-27" transform="translate(102.07 64.01) scale(4.19 1)">C</text><text class="cls-28" transform="translate(102.68 60.91) scale(0.63 1)">T</text><text class="cls-3" transform="translate(117.38 71.51) rotate(-90) scale(1.05 1)">12</text><text class="cls-29" transform="translate(110.93 67.11) scale(14.74 1)">C</text><text class="cls-30" transform="translate(110.97 66.06) scale(13.47 1)">G</text><text class="cls-31" transform="translate(111.15 64.94) scale(3.38 1)">A</text><text class="cls-32" transform="translate(111.55 61.53) scale(0.97 1)">T</text><text class="cls-3" transform="translate(126.26 71.51) rotate(-90) scale(1.05 1)">13</text><text class="cls-33" transform="translate(120.41 67.13) scale(1.88 1)">T</text><text class="cls-34" transform="translate(119.79 60.27) scale(0.42 1)">C</text><text class="cls-3" transform="translate(135.14 71.51) rotate(-90) scale(1.05 1)">14</text><text class="cls-35" transform="translate(128.88 67.12) scale(0.95 1)">A</text><text class="cls-36" transform="translate(128.7 66.76) scale(11.58 1)">G</text><text class="cls-24" transform="translate(128.65 65.43) scale(6.66 1)">C</text><text class="cls-37" transform="translate(129.27 63.42) scale(4.48 1)">T</text><text class="cls-3" transform="translate(144.01 71.51) rotate(-90) scale(1.05 1)">15</text><text class="cls-38" transform="translate(137.81 67.13) scale(62.47 1)">A</text><text class="cls-39" transform="translate(138.21 66.69) scale(10.08 1)">T</text><text class="cls-40" transform="translate(137.59 65.13) scale(7.11 1)">C</text><text class="cls-41" transform="translate(137.63 63.15) scale(2.95 1)">G</text><text class="cls-3" transform="translate(152.89 71.51) rotate(-90) scale(1.05 1)">16</text><text class="cls-42" transform="translate(146.45 67.1) scale(6.58 1)">C</text><text class="cls-43" transform="translate(146.67 65.06) scale(2.08 1)">A</text><text class="cls-44" transform="translate(146.5 59.75) scale(1.17 1)">G</text><text class="cls-45" transform="translate(44.87 82.47)">E-value<tspan class="cls-46" x="27.13" y="0">=7.1 × 10</tspan></text><text class="cls-2" transform="translate(105.81 79.81) scale(0.58)">-10</text><text class="cls-47" transform="translate(21.91 82.47)"><tspan class="cls-48">y</tspan><tspan x="3.94" y="0">feC</tspan></text></svg>