<svg id="Layer_1" data-name="Layer 1" xmlns="http://www.w3.org/2000/svg" width="1.78in" height="1.37in" viewBox="0 0 128.37 98.68"><defs><style>.cls-1{fill:none;stroke:#000;stroke-miterlimit:10;}.cls-2{font-size:3.96px;}.cls-2,.cls-8{fill:#231f20;}.cls-2,.cls-3,.cls-4,.cls-5,.cls-6,.cls-7{font-family:Helvetica-Bold, Helvetica;font-weight:700;}.cls-3{font-size:70.37px;}.cls-3,.cls-6{fill:#36459c;}.cls-4{font-size:70.09px;fill:#fcb316;}.cls-5{font-size:12.89px;}.cls-5,.cls-7{fill:#cb2026;}.cls-6{font-size:25.09px;}.cls-7{font-size:73.6px;}.cls-11,.cls-8,.cls-9{font-size:10px;}.cls-8,.cls-9{font-family:ArialMT, Arial;}.cls-10,.cls-11{letter-spacing:-0.01em;}.cls-11{font-family:Arial-ItalicMT, Arial;font-style:italic;}</style></defs><polyline class="cls-1" points="16.85 63.31 18.83 63.31 18.83 9.99"/><line class="cls-1" x1="16.85" y1="63.31" x2="18.83" y2="63.31"/><line class="cls-1" x1="16.85" y1="36.65" x2="18.83" y2="36.65"/><line class="cls-1" x1="16.85" y1="9.99" x2="18.83" y2="9.99"/><text class="cls-2" transform="translate(25.51 65.84) rotate(-90)">1</text><text class="cls-3" transform="translate(18.51 61.88) scale(0.21 1)">C</text><text class="cls-2" transform="translate(34.97 65.84) rotate(-90)">2</text><text class="cls-4" transform="translate(28.01 62.02) scale(0.19 1)">G</text><text class="cls-2" transform="translate(44.43 65.84) rotate(-90)">3</text><text class="cls-3" transform="translate(37.44 61.88) scale(0.21 1)">C</text><text class="cls-2" transform="translate(53.9 65.84) rotate(-90)">4</text><text class="cls-5" transform="translate(47.17 63.28) scale(1.04 1)">A</text><text class="cls-6" transform="translate(46.87 53.22) scale(0.58 1)">C</text><text class="cls-2" transform="translate(63.37 65.84) rotate(-90)">5</text><text class="cls-7" transform="translate(56.68 63.28) scale(0.18 1)">A</text><text class="cls-2" transform="translate(72.83 65.84) rotate(-90)">6</text><text class="cls-3" transform="translate(65.8 61.88) scale(0.21 1)">C</text><text class="cls-2" transform="translate(82.3 65.84) rotate(-90)">7</text><text class="cls-4" transform="translate(75.39 62.02) scale(0.19 1)">G</text><text class="cls-2" transform="translate(91.76 65.84) rotate(-90)">8</text><text class="cls-3" transform="translate(84.73 61.88) scale(0.21 1)">C</text><text class="cls-8" transform="translate(9.49 65.26)">0</text><text class="cls-8" transform="translate(9.4 40.04)">1</text><text class="cls-8" transform="translate(8.99 12.74)">2</text><text class="cls-8" transform="translate(8.58 41.77) rotate(-90)">bits</text><text class="cls-9" transform="translate(18.83 79.14)"><tspan class="cls-10">Y</tspan><tspan x="6.59" y="0">iaU</tspan></text><text class="cls-11" transform="translate(66.16 79.26)">Nonsignificant</text></svg>