<svg id="Layer_1" data-name="Layer 1" xmlns="http://www.w3.org/2000/svg" width="2.35in" height="1.06in" viewBox="0 0 168.92 76.35"><defs><style>.cls-1{fill:none;stroke:#000;stroke-miterlimit:10;}.cls-2,.cls-58,.cls-60{font-size:8px;}.cls-2,.cls-3,.cls-58{fill:#231f20;}.cls-2,.cls-59{font-family:ArialMT, Arial;}.cls-3{font-size:3.35px;}.cls-10,.cls-11,.cls-12,.cls-13,.cls-14,.cls-15,.cls-16,.cls-17,.cls-18,.cls-19,.cls-20,.cls-21,.cls-22,.cls-23,.cls-24,.cls-25,.cls-26,.cls-27,.cls-28,.cls-29,.cls-3,.cls-30,.cls-31,.cls-32,.cls-33,.cls-34,.cls-35,.cls-36,.cls-37,.cls-38,.cls-39,.cls-4,.cls-40,.cls-41,.cls-42,.cls-43,.cls-44,.cls-45,.cls-46,.cls-47,.cls-48,.cls-49,.cls-5,.cls-50,.cls-51,.cls-52,.cls-53,.cls-54,.cls-55,.cls-56,.cls-57,.cls-6,.cls-7,.cls-8,.cls-9{font-family:Helvetica-Bold, Helvetica;font-weight:700;}.cls-4{font-size:0.44px;}.cls-10,.cls-14,.cls-17,.cls-21,.cls-23,.cls-33,.cls-37,.cls-39,.cls-4,.cls-44,.cls-47,.cls-51,.cls-54,.cls-55{fill:#cb2026;}.cls-5{font-size:0.79px;}.cls-12,.cls-16,.cls-19,.cls-20,.cls-25,.cls-27,.cls-32,.cls-40,.cls-42,.cls-46,.cls-5,.cls-50,.cls-52,.cls-8{fill:#0c8140;}.cls-6{font-size:1.34px;}.cls-11,.cls-15,.cls-18,.cls-24,.cls-29,.cls-31,.cls-34,.cls-38,.cls-41,.cls-48,.cls-57,.cls-6{fill:#fcb316;}.cls-7{font-size:3.04px;}.cls-13,.cls-22,.cls-26,.cls-28,.cls-30,.cls-35,.cls-36,.cls-43,.cls-45,.cls-49,.cls-53,.cls-56,.cls-7,.cls-9{fill:#35459c;}.cls-8{font-size:0.12px;}.cls-9{font-size:1.04px;}.cls-10{font-size:1.85px;}.cls-11{font-size:3.59px;}.cls-12{font-size:19.49px;}.cls-13{font-size:0.16px;}.cls-14{font-size:1.79px;}.cls-15{font-size:5.27px;}.cls-16{font-size:25.89px;}.cls-17{font-size:1.71px;}.cls-18{font-size:10.98px;}.cls-19{font-size:11.94px;}.cls-20{font-size:2.45px;}.cls-21{font-size:5.76px;}.cls-22{font-size:29.05px;}.cls-23{font-size:0.65px;}.cls-24{font-size:1.76px;}.cls-25{font-size:4.31px;}.cls-26{font-size:15.44px;}.cls-27{font-size:0.81px;}.cls-28{font-size:0.95px;}.cls-29{font-size:0.96px;}.cls-30{font-size:0.1px;}.cls-31{font-size:0.17px;}.cls-32{font-size:0.45px;}.cls-33{font-size:0.69px;}.cls-34{font-size:1.97px;}.cls-35{font-size:3.24px;}.cls-36{font-size:3.28px;}.cls-37{font-size:3.74px;}.cls-38{font-size:28.48px;}.cls-39{font-size:0.74px;}.cls-40{font-size:6.45px;}.cls-41{font-size:34.32px;}.cls-42{font-size:1.18px;}.cls-43{font-size:10.8px;}.cls-44{font-size:11.63px;}.cls-45{font-size:1.91px;}.cls-46{font-size:3.45px;}.cls-47{font-size:46.29px;}.cls-48{font-size:0.09px;}.cls-49{font-size:2.88px;}.cls-50{font-size:4.13px;}.cls-51{font-size:22.04px;}.cls-52{font-size:0.62px;}.cls-53{font-size:0.64px;}.cls-54{font-size:1.46px;}.cls-55{font-size:0.1px;}.cls-56{font-size:0.25px;}.cls-57{font-size:0.28px;}.cls-58,.cls-60{font-family:Arial-ItalicMT, Arial;font-style:italic;}.cls-59{font-style:normal;}.cls-61{letter-spacing:-0.01em;}.cls-62{fill:#090505;}</style></defs><polyline class="cls-1" points="11.42 57.51 13.09 57.51 13.09 4.57"/><text class="cls-2" transform="translate(7.56 59.83) scale(0.85 1)">0</text><line class="cls-1" x1="11.42" y1="57.51" x2="13.09" y2="57.51"/><text class="cls-2" transform="translate(7.56 33.32) scale(0.85 1)">1</text><line class="cls-1" x1="11.42" y1="31.04" x2="13.09" y2="31.04"/><text class="cls-2" transform="translate(7.56 6.87) scale(0.85 1)">2</text><line class="cls-1" x1="11.42" y1="4.57" x2="13.09" y2="4.57"/><text class="cls-2" transform="translate(6.87 35.05) rotate(-90) scale(1.17 1)">bits</text><text class="cls-3" transform="translate(18.47 59.86) rotate(-90) scale(1.17 1)">1</text><text class="cls-4" transform="translate(13.04 57.49) scale(29.8 1)">A</text><text class="cls-5" transform="translate(13.39 56.87) scale(18.62 1)">T</text><text class="cls-6" transform="translate(12.89 56) scale(9.97 1)">G</text><text class="cls-7" transform="translate(12.85 54.74) scale(4.74 1)">C</text><text class="cls-3" transform="translate(26.14 59.86) rotate(-90) scale(1.17 1)">2</text><text class="cls-3" transform="translate(33.8 59.86) rotate(-90) scale(1.17 1)">3</text><text class="cls-8" transform="translate(28.71 56.71) scale(0.85 1)">T</text><text class="cls-3" transform="translate(41.47 59.86) rotate(-90) scale(1.17 1)">4</text><text class="cls-9" transform="translate(35.87 57.47) scale(13.91 1)">C</text><text class="cls-10" transform="translate(36.06 56.49) scale(7.08 1)">A</text><text class="cls-11" transform="translate(35.91 54.89) scale(3.71 1)">G</text><text class="cls-12" transform="translate(36.4 52.07) scale(0.76 1)">T</text><text class="cls-3" transform="translate(49.13 59.86) rotate(-90) scale(1.17 1)">5</text><text class="cls-13" transform="translate(43.49 57.49) scale(0.85 1)">C</text><text class="cls-14" transform="translate(43.69 57.08) scale(7.3 1)">A</text><text class="cls-15" transform="translate(43.54 55.47) scale(2.53 1)">G</text><text class="cls-16" transform="translate(44.03 51.61) scale(0.57 1)">T</text><text class="cls-3" transform="translate(56.8 59.86) rotate(-90) scale(1.17 1)">6</text><text class="cls-17" transform="translate(51.38 57.49) scale(7.67 1)">A</text><text class="cls-18" transform="translate(51.23 55.95) scale(1.21 1)">G</text><text class="cls-19" transform="translate(51.72 48.12) scale(1.24 1)">T</text><text class="cls-3" transform="translate(64.46 59.86) rotate(-90) scale(1.17 1)">7</text><text class="cls-20" transform="translate(59.35 57.49) scale(6.04 1)">T</text><text class="cls-21" transform="translate(59.01 55.49) scale(2.27 1)">A</text><text class="cls-22" transform="translate(58.82 51) scale(0.5 1)">C</text><text class="cls-3" transform="translate(72.13 59.86) rotate(-90) scale(1.17 1)">8</text><text class="cls-23" transform="translate(66.7 57.49) scale(20 1)">A</text><text class="cls-24" transform="translate(66.55 56.72) scale(7.58 1)">G</text><text class="cls-25" transform="translate(67.04 55.23) scale(3.44 1)">T</text><text class="cls-26" transform="translate(66.51 51.83) scale(0.93 1)">C</text><text class="cls-3" transform="translate(79.79 59.86) rotate(-90) scale(1.17 1)">9</text><text class="cls-27" transform="translate(74.74 57.22) scale(18.24 1)">T</text><text class="cls-28" transform="translate(74.2 56.32) scale(15.12 1)">C</text><text class="cls-29" transform="translate(74.24 55.37) scale(13.83 1)">G</text><text class="cls-3" transform="translate(87.46 61.87) rotate(-90) scale(1.17 1)">10</text><text class="cls-3" transform="translate(95.13 61.87) rotate(-90) scale(1.17 1)">11</text><text class="cls-30" transform="translate(89.53 57.05) scale(0.85 1)">C</text><text class="cls-31" transform="translate(89.56 56.65) scale(77.06 1)">G</text><text class="cls-3" transform="translate(102.79 61.87) rotate(-90) scale(1.17 1)">12</text><text class="cls-32" transform="translate(97.68 57.49) scale(32.79 1)">T</text><text class="cls-33" transform="translate(97.34 56.85) scale(19.08 1)">A</text><text class="cls-34" transform="translate(97.19 56.05) scale(6.75 1)">G</text><text class="cls-35" transform="translate(97.15 54.38) scale(4.45 1)">C</text><text class="cls-3" transform="translate(110.46 61.87) rotate(-90) scale(1.17 1)">13</text><text class="cls-3" transform="translate(118.12 61.87) rotate(-90) scale(1.17 1)">14</text><text class="cls-36" transform="translate(112.47 57.21) scale(4.4 1)">C</text><text class="cls-37" transform="translate(112.67 54.63) scale(3.51 1)">A</text><text class="cls-38" transform="translate(112.51 51.65) scale(0.47 1)">G</text><text class="cls-3" transform="translate(125.79 61.87) rotate(-90) scale(1.17 1)">15</text><text class="cls-39" transform="translate(120.36 57.25) scale(17.74 1)">A</text><text class="cls-40" transform="translate(120.7 56.39) scale(2.29 1)">T</text><text class="cls-41" transform="translate(120.2 51.51) scale(0.39 1)">G</text><text class="cls-3" transform="translate(133.45 61.87) rotate(-90) scale(1.17 1)">16</text><text class="cls-42" transform="translate(128.39 57.32) scale(12.58 1)">T</text><text class="cls-43" transform="translate(127.86 56.14) scale(1.34 1)">C</text><text class="cls-44" transform="translate(128.05 48.36) scale(1.13 1)">A</text><text class="cls-3" transform="translate(141.12 61.87) rotate(-90) scale(1.17 1)">17</text><text class="cls-45" transform="translate(135.49 57.47) scale(7.54 1)">C</text><text class="cls-46" transform="translate(136.02 55.82) scale(4.29 1)">T</text><text class="cls-47" transform="translate(135.68 53.18) scale(0.28 1)">A</text><text class="cls-3" transform="translate(148.78 61.87) rotate(-90) scale(1.17 1)">18</text><text class="cls-48" transform="translate(143.22 57.49) scale(0.85 1)">G</text><text class="cls-49" transform="translate(143.18 57.07) scale(5 1)">C</text><text class="cls-50" transform="translate(143.71 54.79) scale(3.58 1)">T</text><text class="cls-51" transform="translate(143.37 51.71) scale(0.59 1)">A</text><text class="cls-3" transform="translate(156.45 61.87) rotate(-90) scale(1.17 1)">19</text><text class="cls-52" transform="translate(151.35 57.11) scale(24.01 1)">T</text><text class="cls-53" transform="translate(150.81 56.4) scale(22.53 1)">C</text><text class="cls-54" transform="translate(151 55.57) scale(9 1)">A</text><text class="cls-3" transform="translate(164.11 61.87) rotate(-90) scale(1.17 1)">20</text><text class="cls-55" transform="translate(158.7 57.27) scale(0.85 1)">A</text><text class="cls-56" transform="translate(158.5 56.86) scale(57.1 1)">C</text><text class="cls-57" transform="translate(158.54 56.41) scale(48 1)">G</text><text class="cls-58" transform="translate(49.36 71.86)">E-value<tspan class="cls-59" x="27.13" y="0">=1.2 × 10</tspan></text><text class="cls-2" transform="translate(110.29 69.2) scale(0.58)">-140</text><text class="cls-60" transform="translate(26.39 71.36)"><tspan class="cls-61">y</tspan><tspan x="3.94" y="0">idZ</tspan></text><line class="cls-1" x1="37.9" y1="6.48" x2="80.71" y2="6.48"/><path d="M82.68,10l-1.1-1.8.07,0,2.93,1.17,3.07.67-3.07.68-2.93,1.17-.07,0Z" transform="translate(-2.87 -3.5)"/><line class="cls-1" x1="137.61" y1="6.57" x2="94.8" y2="6.57"/><path d="M98.56,10.07l1.1,1.8-.06,0-2.94-1.17-3.07-.67,3.07-.68L99.6,8.22l.06,0Z" transform="translate(-2.87 -3.5)"/><path class="cls-62" d="M91.23,10.07a1.06,1.06,0,1,0-1.06,1.06A1.06,1.06,0,0,0,91.23,10.07Z" transform="translate(-2.87 -3.5)"/></svg>