<svg id="Layer_1" data-name="Layer 1" xmlns="http://www.w3.org/2000/svg" width="2.12in" height="0.9in" viewBox="0 0 152.63 64.67"><defs><style>.cls-1,.cls-2{fill:none;stroke:#000;stroke-miterlimit:10;}.cls-1{stroke-width:0.75px;}.cls-3{font-size:0.09px;}.cls-10,.cls-18,.cls-21,.cls-24,.cls-26,.cls-3,.cls-31,.cls-33,.cls-35,.cls-40,.cls-42,.cls-51,.cls-52,.cls-57,.cls-60{fill:#fab118;}.cls-10,.cls-11,.cls-12,.cls-13,.cls-14,.cls-15,.cls-16,.cls-17,.cls-18,.cls-19,.cls-20,.cls-21,.cls-22,.cls-23,.cls-24,.cls-25,.cls-26,.cls-27,.cls-28,.cls-29,.cls-3,.cls-30,.cls-31,.cls-32,.cls-33,.cls-34,.cls-35,.cls-36,.cls-37,.cls-38,.cls-39,.cls-4,.cls-40,.cls-41,.cls-42,.cls-43,.cls-44,.cls-45,.cls-46,.cls-47,.cls-48,.cls-49,.cls-5,.cls-50,.cls-51,.cls-52,.cls-53,.cls-54,.cls-55,.cls-56,.cls-57,.cls-58,.cls-59,.cls-6,.cls-60,.cls-7,.cls-8,.cls-9{font-family:Helvetica-Bold, Helvetica;font-weight:700;}.cls-4{font-size:0.52px;}.cls-11,.cls-15,.cls-20,.cls-23,.cls-28,.cls-32,.cls-38,.cls-39,.cls-4,.cls-47,.cls-50,.cls-54,.cls-58,.cls-7{fill:#34479a;}.cls-5{font-size:0.98px;}.cls-13,.cls-16,.cls-19,.cls-22,.cls-29,.cls-30,.cls-37,.cls-43,.cls-45,.cls-48,.cls-49,.cls-5,.cls-55,.cls-59,.cls-8{fill:#098141;}.cls-6{font-size:1.43px;}.cls-12,.cls-14,.cls-17,.cls-25,.cls-27,.cls-34,.cls-36,.cls-41,.cls-44,.cls-46,.cls-53,.cls-56,.cls-6,.cls-9{fill:#ca2128;}.cls-7{font-size:2.71px;}.cls-8{font-size:3.85px;}.cls-9{font-size:13.34px;}.cls-10{font-size:0.25px;}.cls-11{font-size:0.84px;}.cls-12{font-size:3.95px;}.cls-13{font-size:5.8px;}.cls-14{font-size:2.79px;}.cls-15{font-size:2.7px;}.cls-16{font-size:24.85px;}.cls-17{font-size:2.1px;}.cls-18{font-size:4.48px;}.cls-19{font-size:16.89px;}.cls-20{font-size:3.98px;}.cls-21{font-size:39.11px;}.cls-22{font-size:39.92px;}.cls-23{font-size:3.13px;}.cls-24{font-size:3.16px;}.cls-25{font-size:16.39px;}.cls-26{font-size:0.45px;}.cls-27{font-size:2.09px;}.cls-28{font-size:2.02px;}.cls-29{font-size:10.26px;}.cls-30{font-size:7.11px;}.cls-31{font-size:28.93px;}.cls-32{font-size:1.42px;}.cls-33{font-size:3.23px;}.cls-34{font-size:30.76px;}.cls-35{font-size:0.38px;}.cls-36{font-size:1.13px;}.cls-37{font-size:3.36px;}.cls-38{font-size:8.31px;}.cls-39{font-size:1.08px;}.cls-40{font-size:5.42px;}.cls-41{font-size:21.75px;}.cls-42{font-size:1.24px;}.cls-43{font-size:4.53px;}.cls-44{font-size:25.74px;}.cls-45{font-size:5.53px;}.cls-46{font-size:1.73px;}.cls-47{font-size:1.67px;}.cls-48{font-size:37.29px;}.cls-49{font-size:0.07px;}.cls-50{font-size:0.28px;}.cls-51{font-size:0.39px;}.cls-52{font-size:1.32px;}.cls-53{font-size:1.69px;}.cls-54{font-size:2.3px;}.cls-55{font-size:0.49px;}.cls-56{font-size:0.66px;}.cls-57{font-size:0.81px;}.cls-58{font-size:0.19px;}.cls-59{font-size:0.34px;}.cls-60{font-size:0.75px;}.cls-61{font-size:7px;}.cls-61,.cls-62,.cls-65,.cls-68{fill:#231f20;}.cls-61,.cls-64,.cls-65,.cls-68{font-family:MyriadPro-Regular, Myriad Pro;}.cls-62,.cls-65{font-size:6.5px;}.cls-62,.cls-66{font-family:MyriadPro-It, Myriad Pro;font-style:italic;}.cls-63{letter-spacing:-0.02em;}.cls-64{font-style:normal;}.cls-66{font-size:7.8px;}.cls-67{fill:#090505;}.cls-68{font-size:6px;}</style></defs><polyline class="cls-1" points="9.97 44.88 11.44 44.88 11.44 5.46"/><line class="cls-2" x1="9.97" y1="44.87" x2="11.44" y2="44.87"/><line class="cls-2" x1="9.97" y1="25.17" x2="11.44" y2="25.17"/><line class="cls-2" x1="9.97" y1="5.46" x2="11.44" y2="5.46"/><text class="cls-3" transform="translate(11.24 44.86)">G</text><text class="cls-4" transform="translate(11.21 44.54) scale(25.21 1)">C</text><text class="cls-5" transform="translate(11.69 43.98) scale(13.64 1)">T</text><text class="cls-6" transform="translate(11.38 43.04) scale(8.28 1)">A</text><text class="cls-7" transform="translate(18.13 44.83) scale(4.83 1)">C</text><text class="cls-8" transform="translate(18.62 42.76) scale(3.48 1)">T</text><text class="cls-9" transform="translate(18.3 39.89) scale(0.89 1)">A</text><text class="cls-10" transform="translate(25.15 44.86) scale(48.52 1)">G</text><text class="cls-11" transform="translate(25.12 44.42) scale(15.52 1)">C</text><text class="cls-12" transform="translate(25.29 43.65) scale(3.01 1)">A</text><text class="cls-13" transform="translate(25.6 40.71) scale(2.31 1)">T</text><text class="cls-14" transform="translate(32.21 44.86) scale(4.26 1)">A</text><text class="cls-15" transform="translate(32.04 42.74) scale(4.84 1)">C</text><text class="cls-16" transform="translate(32.52 40.63) scale(0.54 1)">T</text><text class="cls-17" transform="translate(39.14 44.86) scale(5.65 1)">A</text><text class="cls-18" transform="translate(39 43.2) scale(2.7 1)">G</text><text class="cls-19" transform="translate(39.45 39.86) scale(0.79 1)">T</text><text class="cls-20" transform="translate(45.94 44.81) scale(3.29 1)">C</text><text class="cls-21" transform="translate(45.98 41.6) scale(0.31 1)">G</text><text class="cls-20" transform="translate(52.87 44.81) scale(3.29 1)">C</text><text class="cls-22" transform="translate(53.36 41.87) scale(0.34 1)">T</text><text class="cls-23" transform="translate(59.8 44.82) scale(4.19 1)">C</text><text class="cls-24" transform="translate(59.83 42.45) scale(3.82 1)">G</text><text class="cls-25" transform="translate(59.97 40.04) scale(0.72 1)">A</text><text class="cls-26" transform="translate(66.82 44.85) scale(27.13 1)">G</text><text class="cls-27" transform="translate(66.95 44.34) scale(5.69 1)">A</text><text class="cls-28" transform="translate(66.78 42.65) scale(6.47 1)">C</text><text class="cls-29" transform="translate(67.26 41.01) scale(1.31 1)">T</text><text class="cls-30" transform="translate(74.19 44.86) scale(1.89 1)">T</text><text class="cls-31" transform="translate(73.74 39.61) scale(0.42 1)">G</text><text class="cls-32" transform="translate(80.68 44.84) scale(9.2 1)">C</text><text class="cls-33" transform="translate(80.72 43.59) scale(3.74 1)">G</text><text class="cls-34" transform="translate(80.86 40.96) scale(0.39 1)">A</text><text class="cls-35" transform="translate(87.65 44.86) scale(32.24 1)">G</text><text class="cls-36" transform="translate(87.79 44.38) scale(10.54 1)">A</text><text class="cls-37" transform="translate(88.09 43.36) scale(3.99 1)">T</text><text class="cls-38" transform="translate(87.61 40.77) scale(1.58 1)">C</text><text class="cls-39" transform="translate(94.54 44.84) scale(12.16 1)">C</text><text class="cls-40" transform="translate(94.57 43.83) scale(2.23 1)">G</text><text class="cls-41" transform="translate(94.71 39.9) scale(0.55 1)">A</text><text class="cls-42" transform="translate(101.55 44.85) scale(9.73 1)">G</text><text class="cls-43" transform="translate(102 43.77) scale(2.96 1)">T</text><text class="cls-44" transform="translate(101.69 40.45) scale(0.46 1)">A</text><text class="cls-39" transform="translate(108.44 44.84) scale(12.16 1)">C</text><text class="cls-45" transform="translate(108.93 43.86) scale(2.43 1)">T</text><text class="cls-41" transform="translate(108.62 39.9) scale(0.55 1)">A</text><text class="cls-46" transform="translate(115.54 44.86) scale(6.87 1)">A</text><text class="cls-47" transform="translate(115.37 43.42) scale(7.81 1)">C</text><text class="cls-48" transform="translate(117.19 41.45) scale(0.36 1)">T</text><text class="cls-49" transform="translate(122.83 44.65)">T</text><text class="cls-50" transform="translate(122.35 44.36) scale(47.21 1)">C</text><text class="cls-51" transform="translate(122.39 43.9) scale(31.31 1)">G</text><text class="cls-52" transform="translate(129.31 44.62) scale(9.15 1)">G</text><text class="cls-53" transform="translate(129.45 43.49) scale(7.03 1)">A</text><text class="cls-54" transform="translate(129.27 42.11) scale(5.69 1)">C</text><text class="cls-55" transform="translate(136.68 44.63) scale(27.38 1)">T</text><text class="cls-56" transform="translate(136.37 44.07) scale(17.98 1)">A</text><text class="cls-57" transform="translate(136.24 43.39) scale(14.85 1)">G</text><text class="cls-58" transform="translate(143.17 44.58) scale(67.14 1)">C</text><text class="cls-59" transform="translate(143.67 44.23) scale(39.28 1)">T</text><text class="cls-60" transform="translate(143.21 43.75) scale(16.15 1)">G</text><text class="cls-61" transform="translate(6.11 45.54)">0</text><text class="cls-61" transform="translate(6.11 25.91)">1</text><text class="cls-61" transform="translate(5.43 6.34)">2</text><text class="cls-61" transform="translate(5.86 27.2) rotate(-90)">Bits</text><line class="cls-2" x1="19.38" y1="1.84" x2="62.19" y2="1.84"/><path d="M64.32,6.72l-1.09-1.8.06,0L66.23,6l3.07.68-3.07.67L63.29,8.56l-.06,0Z" transform="translate(-3.03 -4.87)"/><line class="cls-2" x1="121.87" y1="1.84" x2="79.06" y2="1.84"/><path d="M83,6.72l1.1,1.8-.07,0L81.09,7.39,78,6.72,81.09,6,84,4.87l.07,0Z" transform="translate(-3.03 -4.87)"/><text class="cls-62" transform="translate(34.23 60.76)">E-<tspan class="cls-63" x="5.05" y="0">v</tspan><tspan x="7.9" y="0">alue</tspan><tspan class="cls-64" x="19.14" y="0">=1.7 × 10</tspan></text><text class="cls-65" transform="translate(78.56 58.6) scale(0.58)">-25</text><text class="cls-66" transform="translate(12.21 60.67)">yieP</text><path class="cls-67" d="M74.65,6.72a1.07,1.07,0,1,0-1.06,1.06A1.07,1.07,0,0,0,74.65,6.72Z" transform="translate(-3.03 -4.87)"/><text class="cls-68" transform="translate(17.82 49.86) rotate(-90)">1</text><text class="cls-68" transform="translate(24.73 49.86) rotate(-90)">2</text><text class="cls-68" transform="translate(31.64 49.86) rotate(-90)">3</text><text class="cls-68" transform="translate(38.37 49.86) rotate(-90)">4</text><text class="cls-68" transform="translate(46.14 49.86) rotate(-90)">5</text><text class="cls-68" transform="translate(52.53 49.86) rotate(-90)">6</text><text class="cls-68" transform="translate(59.08 49.86) rotate(-90)">7</text><text class="cls-68" transform="translate(65.99 49.86) rotate(-90)">8</text><text class="cls-68" transform="translate(72.55 49.86) rotate(-90)">9</text><text class="cls-68" transform="translate(79.97 51.99) rotate(-90)">10</text><text class="cls-68" transform="translate(86.88 51.99) rotate(-90)">11</text><text class="cls-68" transform="translate(93.79 51.99) rotate(-90)">12</text><text class="cls-68" transform="translate(101.38 51.99) rotate(-90)">13</text><text class="cls-68" transform="translate(107.6 51.99) rotate(-90)">14</text><text class="cls-68" transform="translate(114.68 51.99) rotate(-90)">15</text><text class="cls-68" transform="translate(120.89 51.99) rotate(-90)">16</text><text class="cls-68" transform="translate(128.31 51.99) rotate(-90)">17</text><text class="cls-68" transform="translate(135.22 51.99) rotate(-90)">18</text><text class="cls-68" transform="translate(142.13 51.99) rotate(-90)">19</text><text class="cls-68" transform="translate(148.86 51.99) rotate(-90)">20</text></svg>