<svg id="Layer_1" data-name="Layer 1" xmlns="http://www.w3.org/2000/svg" width="1.88in" height="1.5in" viewBox="0 0 135.56 107.65"><defs><style>.cls-1,.cls-22,.cls-24{font-size:10px;}.cls-1,.cls-3{fill:#231f20;}.cls-1,.cls-22{font-family:ArialMT, Arial;}.cls-2{fill:none;stroke:#000;stroke-miterlimit:10;}.cls-3{font-size:4.32px;}.cls-10,.cls-11,.cls-12,.cls-13,.cls-14,.cls-15,.cls-16,.cls-17,.cls-18,.cls-19,.cls-20,.cls-21,.cls-3,.cls-4,.cls-5,.cls-6,.cls-7,.cls-8,.cls-9{font-family:Helvetica-Bold, Helvetica;font-weight:700;}.cls-4{font-size:15.36px;}.cls-10,.cls-15,.cls-18,.cls-21,.cls-4,.cls-6{fill:#fcb316;}.cls-5{font-size:24.44px;}.cls-11,.cls-14,.cls-17,.cls-5,.cls-9{fill:#0f8140;}.cls-6{font-size:9.36px;}.cls-7{font-size:39.01px;}.cls-12,.cls-13,.cls-16,.cls-19,.cls-20,.cls-7{fill:#36459c;}.cls-8{font-size:80.29px;fill:#cb2026;}.cls-9{font-size:9.82px;}.cls-10{font-size:38.86px;}.cls-11{font-size:16.13px;}.cls-12{font-size:23.37px;}.cls-13{font-size:15.42px;}.cls-14{font-size:24.44px;}.cls-15{font-size:76.46px;}.cls-16{font-size:4.38px;}.cls-17{font-size:4.58px;}.cls-18{font-size:14.04px;}.cls-19{font-size:23.37px;}.cls-20{font-size:9.39px;}.cls-21{font-size:38.86px;}.cls-23,.cls-24{letter-spacing:-0.01em;}.cls-24{font-family:Arial-ItalicMT, Arial;font-style:italic;}</style></defs><text class="cls-1" transform="translate(9.23 12.31)">2</text><polyline class="cls-2" points="15.56 69.06 17.72 69.06 17.72 10.9"/><line class="cls-2" x1="15.56" y1="69.06" x2="17.72" y2="69.06"/><line class="cls-2" x1="15.56" y1="39.98" x2="17.72" y2="39.98"/><line class="cls-2" x1="15.56" y1="10.9" x2="17.72" y2="10.9"/><text class="cls-3" transform="translate(24.98 71.82) rotate(-90)">1</text><text class="cls-4" transform="translate(17.45 68.76) scale(0.97 1)">G</text><text class="cls-5" transform="translate(17.79 57.11) scale(0.7 1)">T</text><text class="cls-3" transform="translate(35.28 71.82) rotate(-90)">2</text><text class="cls-6" transform="translate(27.76 68.87) scale(1.59 1)">G</text><text class="cls-7" transform="translate(27.68 60.82) scale(0.4 1)">C</text><text class="cls-3" transform="translate(45.57 71.82) rotate(-90)">3</text><text class="cls-8" transform="translate(38.3 69.04) scale(0.18 1)">A</text><text class="cls-3" transform="translate(55.86 71.82) rotate(-90)">4</text><text class="cls-9" transform="translate(48.7 69.04) scale(1.73 1)">T</text><text class="cls-10" transform="translate(48.37 60.9) scale(0.38 1)">G</text><text class="cls-3" transform="translate(66.15 71.82) rotate(-90)">5</text><text class="cls-11" transform="translate(58.92 69.04) scale(1.06 1)">T</text><text class="cls-12" transform="translate(58.5 56.64) scale(0.67 1)">C</text><text class="cls-3" transform="translate(76.45 71.82) rotate(-90)">6</text><text class="cls-6" transform="translate(68.89 68.87) scale(1.59 1)">G</text><text class="cls-7" transform="translate(68.8 60.82) scale(0.4 1)">C</text><text class="cls-3" transform="translate(86.74 71.82) rotate(-90)">7</text><text class="cls-13" transform="translate(79.11 68.73) scale(1.02 1)">C</text><text class="cls-14" transform="translate(79.53 57.11) scale(0.7 1)">T</text><text class="cls-3" transform="translate(97.03 71.82) rotate(-90)">8</text><text class="cls-15" transform="translate(89.5 67.66) scale(0.19 1)">G</text><text class="cls-3" transform="translate(107.33 71.82) rotate(-90)">9</text><text class="cls-16" transform="translate(99.72 68.95) scale(3.59 1)">C</text><text class="cls-17" transform="translate(100.13 65.43) scale(3.72 1)">T</text><text class="cls-18" transform="translate(99.8 61.49) scale(1.06 1)">G</text><text class="cls-3" transform="translate(117.62 74.22) rotate(-90)">10</text><text class="cls-11" transform="translate(110.44 69.04) scale(1.06 1)">T</text><text class="cls-19" transform="translate(110.02 56.64) scale(0.67 1)">C</text><text class="cls-3" transform="translate(127.91 74.22) rotate(-90)">11</text><text class="cls-20" transform="translate(120.33 68.85) scale(1.67 1)">C</text><text class="cls-21" transform="translate(120.41 60.9) scale(0.38 1)">G</text><text class="cls-1" transform="translate(7.77 72.05)">0</text><text class="cls-1" transform="translate(9.4 42.39)">1</text><text class="cls-1" transform="translate(8.58 44.12) rotate(-90)">bits</text><text class="cls-22" transform="translate(17.72 84.24)"><tspan class="cls-23">Y</tspan><tspan x="6.59" y="0">ihW</tspan></text><text class="cls-24" transform="translate(73.36 84.24)">Nonsignificant</text></svg>